<svg width="60" height="61" viewBox="0 0 60 61" fill="none" xmlns="http://www.w3.org/2000/svg">
<g clip-path="url(#clip0_1_920)">
<path d="M46.4409 34.4738C44.7904 26.1675 52.6745 21.2959 52.6745 21.2959C52.6745 21.2959 49.6028 16.8518 44.4403 15.7085C39.2804 14.5627 36.6979 15.9943 34.1204 17.068C31.5405 18.1443 30.2531 18.1443 30.2531 18.1443C26.53 18.1443 23.8083 14.2022 16.7148 15.9969C11.8278 17.2302 6.68328 22.8717 5.75378 29.6048C4.82427 36.3405 6.8301 44.9352 10.6974 51.5963C14.5648 58.2625 18.5043 60.7677 21.3004 60.8398C24.0967 60.9093 26.8878 58.8367 30.2531 58.332C33.621 57.8324 35.6937 59.5525 38.9971 60.482C42.2877 61.409 43.4412 60.549 47.2313 57.3252C51.0317 54.1015 54.4717 44.8555 54.4717 44.8555C54.4717 44.8555 48.0914 42.7852 46.4409 34.4738Z" fill="white"/>
<path d="M39.1337 10.3351C42.7899 6.60943 41.5514 0.841797 41.5514 0.841797C41.5514 0.841797 36.4173 1.74301 32.9773 5.32195C29.5399 8.90352 30.1089 14.5604 30.1089 14.5604C30.1089 14.5604 35.4774 14.0583 39.1337 10.3351Z" fill="white"/>
</g>
<defs>
<clipPath id="clip0_1_920">
<rect width="60" height="60" fill="white" transform="translate(0 0.841797)"/>
</clipPath>
</defs>
</svg>
