<svg width="274" height="441" viewBox="0 0 274 441" fill="none" xmlns="http://www.w3.org/2000/svg">
<g style="mix-blend-mode:multiply" opacity="0.2">
<path d="M16.3571 440.354C11.5058 440.354 5.7103 438.998 -2.0062 435.926C-22.4858 427.594 -43.4864 402.573 -65.6591 376.113C-77.8688 361.582 -90.4691 346.553 -103.135 334.236C-121.628 311.983 -152.982 296.649 -183.327 281.786C-205.5 270.936 -226.436 260.668 -242.65 247.991L-242.683 247.964C-254.86 238.11 -260.557 228.589 -260.102 218.874C-259.223 199.915 -234.901 183.031 -206.705 163.49L-204.002 161.608C-183.1 147.049 -156.857 127.564 -118.861 98.4743L-115.637 96.094C-81.6456 70.9623 -39.3188 39.6861 15.5106 20.7266C125.332 -23.1985 221.446 10.8179 251.791 47.6851C283.439 90.7798 280.704 136.532 241.373 222.638C200.185 312.398 108.955 381.787 71.6423 407.445C56.3721 415.914 46.7998 423.415 39.8322 428.895C30.9761 435.815 25.2131 440.354 16.3571 440.354ZM-239.785 245.334C-223.929 257.734 -203.188 267.892 -181.244 278.659C-150.54 293.688 -118.763 309.243 -99.8786 331.994C-87.1806 344.311 -74.5152 359.423 -62.2729 374.01C-40.3933 400.082 -19.7183 424.716 -0.247986 432.66C18.9944 440.271 23.5201 436.728 36.9669 426.211C44.0648 420.647 53.8 413.008 69.1678 404.483C106.025 379.102 196.604 310.239 237.433 221.282C276.211 136.421 279.043 91.4995 248.275 49.6225C218.809 13.8624 124.941 -19.1298 17.2036 23.9649C-37.0723 42.7584 -79.106 73.8132 -112.87 98.7511L-116.06 101.131C-154.089 130.249 -180.365 149.762 -201.333 164.348L-204.035 166.23C-231.45 185.217 -255.088 201.631 -255.902 218.957C-256.292 227.62 -251.018 236.228 -239.785 245.334Z" fill="#CCCCCC"/>
<path d="M10.0378 415.277C3.33061 415.277 -3.76729 413.45 -13.535 410.212L-13.7303 410.157C-32.4843 402.158 -47.3313 382.866 -63.0247 362.467C-73.7366 348.518 -84.8393 334.125 -98.1885 321.587C-117.008 301.243 -140.678 285.412 -163.534 270.106C-178.902 259.837 -193.424 250.122 -206.089 239.383L-206.317 239.162C-232.104 209.297 -213.61 196.122 -180.074 172.181C-176.428 169.579 -172.586 166.839 -168.581 163.905C-160.702 158.95 -152.302 153.415 -143.38 147.547C-103.756 121.447 -49.4476 85.7143 27.1638 56.7076C120.804 26.2341 193.15 48.2658 223.365 83.6107C253.644 120.45 241.891 164.791 207.866 238.857C170.586 313.754 102.538 362.246 65.9742 388.291L61.9043 391.197C34.7175 408.358 23.0614 415.277 10.0378 415.277ZM-11.907 406.891C14.7588 415.692 19.2845 413.589 59.2996 388.402L63.2718 385.579C99.5426 359.727 167.07 311.595 203.959 237.556C237.43 164.735 249.119 121.225 219.946 85.7419C190.708 51.5318 120.25 30.3027 28.7917 60.0567C-47.2661 88.8419 -101.314 124.436 -140.808 150.398C-149.729 156.266 -158.13 161.801 -165.944 166.728C-169.851 169.579 -173.693 172.319 -177.339 174.948C-210.908 198.918 -226.276 209.878 -202.996 236.947C-190.526 247.493 -176.135 257.097 -160.93 267.282C-137.845 282.699 -114.012 298.669 -94.9651 319.262C-81.4857 331.911 -70.2854 346.442 -59.4758 360.502C-44.1405 380.43 -29.6192 399.279 -11.907 406.891Z" fill="#CCCCCC"/>
<path d="M4.57739 394.354C-3.98563 394.354 -11.93 391.752 -21.828 387.323C-38.368 378.854 -51.6521 361.334 -65.7176 342.817C-74.0527 331.801 -82.7134 320.425 -92.6114 309.991C-106.449 293.605 -122.859 279.6 -138.682 266.038C-151.673 254.911 -163.948 244.421 -173.618 233.599L-173.748 233.433C-193.349 205.368 -173.097 192.276 -136.306 168.5L-135.882 168.224L-129.077 164.266C-90.3322 141.819 -37.261 111.068 35.4433 88.7875C121.269 65.5102 175.903 89.2304 196.643 116.576C218.816 145.749 213.378 184.913 177.889 251.756C152.037 298.338 109.841 340.215 52.5043 376.224C30.3316 389.012 16.8196 394.354 4.57739 394.354ZM-170.2 231.468C-160.692 242.069 -148.548 252.476 -135.687 263.464C-119.733 277.109 -103.226 291.253 -89.2578 307.776C-79.2621 318.266 -70.5689 329.753 -62.1686 340.852C-48.3961 359.036 -35.3725 376.197 -19.7442 384.196C2.78665 394.326 14.0195 394.132 50.0624 373.291C106.78 337.641 148.521 296.235 174.047 250.234C208.853 184.664 214.388 146.496 193.094 118.486C171.573 90.116 114.92 70.9628 36.7783 92.1365C-35.34 114.251 -88.1508 144.836 -126.701 167.199L-133.766 171.324C-170.818 195.265 -187.781 206.226 -170.2 231.468Z" fill="#CCCCCC"/>
<path d="M1.51881 375.312C-8.05354 375.312 -17.0398 372.516 -27.068 367.036L-27.1331 367.008C-42.2405 358.207 -54.4176 341.655 -67.311 324.163C-73.2693 316.053 -79.4555 307.694 -86.1627 299.723C-95.1164 288.043 -105.047 277.248 -114.652 266.841C-126.438 254.054 -137.606 241.959 -144.899 230.223C-157.63 205.451 -139.006 192.498 -106.838 174.037C-73.6925 156.6 -22.4772 131.745 40.2966 117.075C100.238 106.585 145.137 114.999 166.854 140.74C190.296 168.474 184.468 212.454 150.867 261.416C115.671 319.042 60.0274 352.837 43.813 361.805C26.5567 370.883 13.5657 375.312 1.51881 375.312ZM-24.7889 364.019C-6.03488 374.232 8.68178 376.059 41.5338 358.76C57.4878 349.931 112.415 316.579 147.155 259.673C179.91 211.928 185.836 169.359 163.402 142.844C142.695 118.321 99.3261 110.433 41.2408 120.59C-20.8818 135.121 -71.739 159.783 -104.591 177.081C-137.704 196.069 -152.127 207.361 -141.155 228.701C-134.09 240.021 -123.052 251.978 -111.363 264.655C-101.693 275.145 -91.6977 285.967 -82.7114 297.73C-75.9717 305.701 -69.7855 314.143 -63.7946 322.281C-51.0966 339.413 -39.1474 355.633 -24.7889 364.019Z" fill="#CCCCCC"/>
<path d="M-0.502289 357.928C-10.6607 357.928 -20.0051 354.966 -29.7077 349.043L-29.9682 348.849C-67.1181 316.881 -111.04 243.672 -119.473 229.335L-119.603 229.003C-126.18 208.466 -111.333 196.398 -81.672 181.314C-53.7363 167.973 -9.61881 150.37 42.0849 142.149C89.6862 135.783 125.338 144.363 142.53 166.312C161.609 190.697 155.781 227.757 126.576 268.001C100.854 306.806 62.9553 334.733 36.0615 347.908C21.996 354.606 10.2747 357.928 -0.502289 357.928ZM-27.103 346.22C-8.5118 357.485 8.06075 357.097 33.9452 344.78C60.3506 331.855 97.5656 304.398 122.929 266.175C150.865 227.674 156.856 191.112 139.013 168.305C122.799 147.574 88.6118 139.52 42.8012 145.692C-8.28388 153.829 -51.913 171.267 -79.5556 184.441C-107.947 198.862 -121.329 209.573 -115.598 227.924C-91.3746 269.109 -55.4619 321.752 -27.103 346.22Z" fill="#CCCCCC"/>
<path d="M-1.98876 341.904C-12.8635 341.904 -22.273 338.832 -29.4035 332.881C-57.9252 309.382 -87.619 259.811 -96.3773 230.002C-97.8099 223.11 -95.7587 216.384 -90.354 209.963C-73.6837 190.173 -24.2916 173.095 41.8032 164.294C79.0833 161.222 106.889 169.719 120.173 188.235C135.215 209.215 129.81 239.744 105.358 271.962C73.5482 312.731 35.4867 338.749 3.54631 341.627C1.65789 341.821 -0.198013 341.904 -1.98876 341.904ZM56.3245 167.255C51.8313 167.255 47.1754 167.449 42.3567 167.864C-22.5009 176.5 -70.8836 193.024 -86.8701 212.066C-91.6237 217.713 -93.4145 223.497 -92.2098 229.282C-83.6142 258.482 -54.4413 307.251 -26.408 330.335C-19.0171 336.479 -8.79357 339.164 3.12303 338.084C33.8262 335.317 70.7481 309.88 101.842 270.024C125.024 239.467 130.559 209.603 116.591 190.117C105.879 175.199 84.7485 167.255 56.3245 167.255Z" fill="#CCCCCC"/>
<path d="M-1.119 326.679C-11.2123 326.679 -20.1009 323.912 -27.036 318.542C-51.7809 299.472 -74.6699 259.145 -75.9722 232.269V232.214C-76.135 207.442 -27.6872 187.099 39.189 183.888C67.6782 183.307 88.8091 191.389 98.7396 206.723C110.135 224.298 105.447 248.683 85.8787 273.648C61.6873 303.983 31.4074 323.69 4.83926 326.375C2.78804 326.569 0.801979 326.679 -1.119 326.679ZM-71.7396 232.159C-70.4372 258.232 -48.2319 297.368 -24.1708 315.885C-16.845 321.559 -7.01219 323.939 4.31835 322.804C29.6818 320.23 58.8547 301.105 82.3624 271.628C101.019 247.825 105.642 224.769 95.0278 208.411C85.8787 194.323 66.1479 186.85 39.3519 187.431C-24.0731 190.503 -71.8698 209.74 -71.7396 232.159Z" fill="#CCCCCC"/>
<path d="M-0.391861 312.26C-9.21536 312.26 -17.0947 309.963 -23.4437 305.452C-45.7466 289.703 -61.6029 257.818 -58.1191 235.786C-54.3422 214.64 -13.7411 199.472 34.1858 201.216C55.219 202.24 70.7171 209.602 77.8801 221.919C86.0849 236.035 82.3406 254.773 67.5588 273.29C50.1072 294.962 27.0879 309.382 5.98969 311.873C3.80823 312.15 1.69192 312.26 -0.391861 312.26ZM26.5996 204.676C-15.9225 204.676 -50.663 218.044 -53.9189 236.312C-57.1748 256.877 -41.6767 287.904 -20.7413 302.712C-13.8387 307.583 -4.81989 309.52 5.40365 308.33C25.3623 305.978 47.2746 292.111 64.075 271.269C77.9778 253.86 81.6243 236.45 74.1032 223.497C67.6565 212.398 53.3957 205.755 33.9905 204.786C31.516 204.731 29.0415 204.676 26.5996 204.676Z" fill="#CCCCCC"/>
<path d="M1.60012 298.476C-5.49775 298.476 -11.9444 296.732 -17.3492 293.328C-36.0706 281.509 -46.5872 257.734 -40.7917 240.324C-34.8985 223.108 -4.29306 212.757 28.8195 216.742C43.5036 218.597 54.2807 224.797 59.1645 234.207C64.6996 244.863 61.9646 258.37 51.6759 271.268C39.857 285.993 24.0008 295.736 8.17706 297.978C5.96305 298.31 3.74902 298.476 1.60012 298.476ZM-36.7218 241.321C-41.9964 257.125 -31.9682 279.627 -14.8421 290.449C-8.75361 294.296 -1.03711 295.68 7.49335 294.462C21.9821 292.387 37.2197 282.976 48.2247 269.275C57.6668 257.429 60.2389 245.195 55.3225 235.674C51.0573 227.426 41.4198 221.974 28.2334 220.313C-2.33949 216.604 -31.4798 226.042 -36.7218 241.321Z" fill="#CCCCCC"/>
<path d="M3.23514 285.136C-1.68127 285.136 -6.43489 284.056 -10.6024 281.731C-24.5377 274.065 -31.0495 257.79 -25.1563 245.473C-19.2306 233.212 1.90025 226.597 21.9892 230.748C31.2685 232.658 38.0408 237.336 41.0688 243.868C44.3898 251.064 42.6967 259.81 36.4453 267.837C27.8172 278.853 15.0215 285.136 3.23514 285.136ZM-8.32332 278.742C3.69096 285.357 22.1845 279.6 32.929 265.872C38.3989 258.842 39.9617 251.286 37.1291 245.196C34.6221 239.771 28.8916 235.869 20.9798 234.236C2.84442 230.499 -16.1049 236.146 -21.2492 246.829C-26.4261 257.652 -20.6306 271.961 -8.32332 278.742Z" fill="#CCCCCC"/>
<path d="M4.46058 272.044C1.79074 272.044 -0.814002 271.518 -3.19081 270.411C-11.3306 266.619 -14.619 257.901 -10.484 250.954C-6.41412 244.089 4.75359 240.796 14.3585 243.619C18.9819 244.975 22.368 247.688 23.8332 251.286C25.396 255.078 24.6472 259.506 21.7494 263.409C17.6144 268.917 10.9398 272.044 4.46058 272.044ZM7.06531 246.193C1.17213 246.193 -4.39547 248.601 -6.77227 252.587C-9.86538 257.818 -7.39092 264.405 -1.20471 267.256C4.94895 270.135 13.6422 267.533 18.1354 261.471C20.3819 258.454 20.968 255.271 19.7959 252.448C18.754 249.902 16.312 247.964 12.9259 246.968C11.0049 246.442 9.01885 246.193 7.06531 246.193Z" fill="#CCCCCC"/>
</g>
</svg>
