<svg width="226" height="21" viewBox="0 0 226 21" fill="none" xmlns="http://www.w3.org/2000/svg">
<path d="M221.67 10.854C221.347 10.8706 221.021 10.8819 220.705 10.9068C220.499 10.9223 220.411 10.8768 220.274 10.853C220.229 10.8447 220.18 10.8281 220.137 10.8302C219.818 10.8467 219.498 10.8654 219.178 10.884C219.081 10.9244 219.019 10.9782 218.869 10.9979C218.722 11.0166 218.549 11.0166 218.386 11.0259C218.171 11.0373 217.956 11.0487 217.74 11.059C217.633 11.0642 217.545 11.0839 217.509 11.1212C217.502 11.1274 217.574 11.1429 217.613 11.1522C217.744 11.1833 217.871 11.2185 218.014 11.2423C218.151 11.2651 218.321 11.2278 218.468 11.2568C218.797 11.322 218.8 11.321 219.051 11.3086C219.267 11.2972 219.482 11.2848 219.697 11.2765C219.739 11.2744 219.788 11.2899 219.834 11.2982C219.971 11.321 220.059 11.3728 220.261 11.3531C220.414 11.3376 220.584 11.3345 220.744 11.3262C220.877 11.3562 221.001 11.3904 221.145 11.4142C221.278 11.437 221.318 11.4546 221.246 11.4846C221.181 11.5126 221.089 11.524 220.969 11.526C220.861 11.5271 220.753 11.5364 220.646 11.5416C220.59 11.5447 220.538 11.5467 220.486 11.5499C220.281 11.5612 220.281 11.5612 219.906 11.495C219.759 11.4691 219.593 11.5053 219.452 11.4805C219.358 11.4639 219.276 11.4391 219.185 11.4214C219.146 11.4142 219.084 11.4132 219.035 11.4152C218.872 11.4225 218.709 11.4277 218.552 11.4411C218.442 11.4504 218.376 11.4794 218.389 11.5084C218.393 11.5198 218.471 11.5364 218.516 11.5374C218.621 11.5395 218.732 11.525 218.833 11.5322C218.931 11.5395 219.032 11.5602 219.103 11.583C219.25 11.6306 219.416 11.5882 219.557 11.6006C219.703 11.6141 219.824 11.6555 219.964 11.6803C220 11.6865 220.069 11.6762 220.124 11.6731C220.284 11.6658 220.444 11.6596 220.604 11.6524C220.737 11.6824 220.881 11.7093 221.001 11.7435C221.22 11.8056 221.455 11.8294 221.738 11.7994C221.898 11.7828 222.055 11.789 222.182 11.8294C222.312 11.8709 222.462 11.8667 222.629 11.8584C222.782 11.8501 222.938 11.8274 223.095 11.8564C223.434 11.9206 223.437 11.9237 223.838 11.8988C223.959 11.8916 224.05 11.8895 224.142 11.9133C224.226 11.9351 224.318 11.9537 224.406 11.9744C224.565 11.9672 224.728 11.9599 224.888 11.9516C225.094 11.9402 225.208 11.9547 225.257 12.0127C225.286 12.0479 225.299 12.08 225.371 12.1038C225.456 12.1328 225.547 12.1318 225.671 12.1235C225.788 12.1163 225.873 12.1049 225.922 12.0676C225.942 12.0521 225.981 12.0376 226.017 12.0251C226.046 12.0158 226.092 12.0013 226.118 12.0034C226.167 12.0075 226.232 12.0189 226.248 12.0324C226.408 12.1577 226.408 12.1587 226.571 12.195C226.75 12.2354 226.936 12.2716 227.099 12.3171C227.246 12.3575 227.393 12.3399 227.552 12.3399C227.673 12.3399 227.751 12.3669 227.742 12.3938C227.735 12.4093 227.689 12.4321 227.65 12.4342C227.331 12.4549 227.008 12.4725 226.685 12.487C226.646 12.489 226.597 12.4704 226.551 12.4611C226.46 12.4424 226.379 12.4134 226.281 12.4072C226.183 12.401 226.069 12.4166 225.961 12.4217C225.854 12.4269 225.739 12.4404 225.642 12.4321C225.544 12.4238 225.465 12.3938 225.374 12.3741C225.332 12.3648 225.273 12.3513 225.237 12.3544C224.999 12.3793 224.823 12.3451 224.654 12.2996C224.618 12.2902 224.556 12.284 224.51 12.2861C224.132 12.3037 223.757 12.3244 223.379 12.3441C223.225 12.3524 223.101 12.3161 223.069 12.255C223.052 12.2208 223.02 12.1867 223.02 12.1525C223.02 12.0904 222.84 12.0562 222.71 12.0635C222.495 12.0738 222.276 12.0821 222.064 12.0976C221.892 12.11 221.745 12.0976 221.627 12.0603C221.49 12.0179 221.334 12.0262 221.177 12.0376C221.06 12.0459 221.027 12.08 221.034 12.166C221.04 12.2353 220.985 12.2571 220.773 12.2685C220.506 12.283 220.235 12.2975 219.964 12.3089C219.922 12.3109 219.873 12.2933 219.831 12.284C219.739 12.2654 219.658 12.2353 219.56 12.2291C219.462 12.2219 219.348 12.2374 219.24 12.2436C219.133 12.2488 219.019 12.2633 218.921 12.2561C218.823 12.2488 218.741 12.2178 218.653 12.1981C218.611 12.1888 218.559 12.1753 218.516 12.1774C218.301 12.1856 218.086 12.1981 217.871 12.2095C217.63 12.2219 217.63 12.2219 217.287 12.1577C217.131 12.1287 216.974 12.1515 216.821 12.1598C216.658 12.168 216.505 12.1722 216.377 12.1308C216.293 12.1038 216.198 12.0873 216.097 12.0925C215.826 12.1049 215.559 12.1204 215.288 12.1328C215.243 12.1349 215.181 12.1297 215.145 12.1204C214.972 12.0769 214.802 12.0427 214.561 12.0645C214.352 12.0831 214.127 12.0842 213.919 12.1018C213.805 12.1111 213.752 12.1442 213.775 12.1701C213.788 12.1836 213.857 12.1991 213.902 12.1991C214.007 12.2001 214.121 12.1846 214.219 12.1908C214.421 12.2032 214.522 12.2902 214.786 12.2664C214.943 12.2519 215.106 12.2467 215.269 12.2426C215.311 12.2416 215.357 12.2612 215.402 12.2716C215.533 12.2996 215.647 12.3358 215.836 12.3171C215.993 12.3027 216.159 12.2985 216.319 12.2902C216.573 12.2768 216.573 12.2778 216.902 12.341C217.059 12.371 217.215 12.3472 217.369 12.3399C217.483 12.3348 217.59 12.3244 217.682 12.3389C217.822 12.3606 217.923 12.4103 218.096 12.4072C218.259 12.4041 218.419 12.3896 218.582 12.3845C218.683 12.3814 218.777 12.3979 218.859 12.4259C218.944 12.4538 219.035 12.4663 219.146 12.46C219.306 12.4518 219.469 12.4414 219.632 12.4362C219.677 12.4352 219.73 12.4445 219.772 12.4528C219.863 12.4714 219.951 12.4932 220.039 12.5129C220.199 12.5066 220.362 12.5046 220.519 12.4922C220.639 12.4828 220.724 12.487 220.822 12.5077C220.946 12.5356 221.047 12.5854 221.249 12.5615C221.35 12.5501 221.468 12.5532 221.569 12.5429C221.693 12.5294 221.777 12.5346 221.865 12.5657C222.032 12.6247 222.24 12.6257 222.456 12.6029C222.69 12.5781 222.867 12.6071 223.043 12.6527C223.229 12.7003 223.229 12.6993 223.372 12.8142C223.414 12.8473 223.535 12.8629 223.636 12.8567C223.806 12.8463 223.952 12.8515 224.076 12.8908C224.207 12.9333 224.363 12.9281 224.523 12.9167C224.735 12.9012 224.947 12.8877 225.12 12.9478C225.205 12.9768 225.296 12.984 225.41 12.9768C225.733 12.9581 226.059 12.9467 226.375 12.924C226.568 12.9095 226.678 12.9426 226.809 12.9706C226.985 13.0089 227.177 13.043 227.177 13.1248C227.177 13.1383 227.223 13.1538 227.262 13.1642C227.347 13.1859 227.438 13.2046 227.526 13.2253C227.657 13.2564 227.784 13.2822 227.963 13.2657C228.12 13.2522 228.286 13.2481 228.446 13.2387C228.606 13.2294 228.752 13.2242 228.896 13.2636C229.062 13.3081 229.238 13.3506 229.427 13.3837C229.561 13.4075 229.737 13.3672 229.881 13.3993C229.969 13.4189 230.053 13.4417 230.148 13.4583C230.187 13.4655 230.249 13.4603 230.301 13.4583C230.409 13.4541 230.52 13.451 230.624 13.4407C230.745 13.4293 230.836 13.4314 230.927 13.4552C231.012 13.4769 231.097 13.5069 231.195 13.5132C231.342 13.5225 231.505 13.4811 231.651 13.5287C231.726 13.5525 231.821 13.5753 231.919 13.5825C232.017 13.5898 232.131 13.5743 232.235 13.5753C232.281 13.5753 232.336 13.5919 232.362 13.6053C232.378 13.6126 232.356 13.6322 232.333 13.6426C232.304 13.655 232.261 13.6716 232.219 13.6737C231.896 13.6923 231.573 13.7078 231.25 13.7254C231.058 13.7358 231.058 13.7358 230.67 13.6706C230.579 13.655 230.477 13.6581 230.363 13.6654C230.21 13.6747 230.054 13.6923 229.894 13.6737C229.685 13.6033 229.427 13.597 229.154 13.624C229.039 13.6353 228.935 13.6353 228.85 13.6157C228.671 13.5763 228.482 13.5401 228.322 13.4935C228.198 13.4572 228.139 13.4541 228.087 13.5038C228.071 13.5194 228.055 13.5359 228.058 13.5504C228.077 13.6022 228.113 13.6529 228.133 13.7047C228.139 13.7192 228.113 13.7358 228.097 13.7513C228.045 13.7948 227.976 13.7917 227.862 13.7555C227.748 13.7192 227.611 13.6954 227.429 13.712C227.272 13.7265 227.102 13.7244 226.946 13.7399C226.705 13.7627 226.535 13.7296 226.362 13.6851C226.326 13.6757 226.264 13.6706 226.219 13.6726C225.733 13.6964 225.25 13.7234 224.764 13.7472C224.66 13.7524 224.565 13.7368 224.484 13.7089C224.399 13.6809 224.305 13.6664 224.2 13.6716C223.77 13.6933 223.339 13.713 222.909 13.7399C222.733 13.7513 222.593 13.7379 222.472 13.7016C222.381 13.6747 222.296 13.6664 222.182 13.6695C222.058 13.6726 221.97 13.683 221.908 13.713C221.849 13.742 221.892 13.7596 222.022 13.7824C222.162 13.8072 222.293 13.8393 222.426 13.8683C222.534 13.8642 222.642 13.8559 222.746 13.8569C222.792 13.8569 222.834 13.8756 222.88 13.8859C223.01 13.916 223.131 13.946 223.317 13.9294C223.473 13.9149 223.639 13.9118 223.799 13.9025C224.021 13.8911 224.021 13.8911 224.38 13.9564C224.471 13.9729 224.569 13.9719 224.686 13.9626C224.787 13.9553 224.892 13.9698 224.963 14.0009C224.993 14.0133 224.983 14.034 224.921 14.1024C224.921 14.1531 224.989 14.1303 225.012 14.0972C225.048 14.0495 224.98 14.034 224.849 14.0599C224.758 14.0785 224.712 14.1055 224.735 14.1272C224.748 14.1386 224.81 14.1531 224.921 14.1024C225.208 14.0402 225.426 14.033 225.635 14.0164C225.759 14.0071 225.837 14.0112 225.935 14.0382C226.052 14.0703 226.17 14.1044 226.362 14.0879C226.571 14.0692 226.793 14.0671 227.005 14.0516C227.2 14.0371 227.301 14.0827 227.425 14.1096C227.575 14.1417 227.742 14.1055 227.878 14.1241C228.022 14.1427 228.123 14.1883 228.289 14.1966C228.531 14.1686 228.684 14.2204 228.867 14.2546C229.01 14.2805 229.18 14.2577 229.333 14.2463C229.506 14.2339 229.649 14.2453 229.77 14.2825C229.907 14.325 230.06 14.3157 230.217 14.3064C230.582 14.2856 230.595 14.2825 230.807 14.3395C230.96 14.3809 231.107 14.3623 231.26 14.3571C231.394 14.3851 231.524 14.4151 231.664 14.4399C231.7 14.4461 231.769 14.4358 231.824 14.4327C231.984 14.4244 232.147 14.4161 232.307 14.4078C232.414 14.4027 232.529 14.3871 232.626 14.3933C232.724 14.4006 232.806 14.4306 232.894 14.4503C232.982 14.47 233.073 14.4896 233.158 14.5103C233.288 14.5414 233.412 14.5673 233.595 14.5518C233.751 14.5383 233.914 14.5342 234.077 14.5248C234.283 14.5135 234.276 14.5166 234.658 14.5787C234.863 14.6129 235.075 14.5714 235.284 14.5673C235.388 14.5652 235.489 14.5766 235.561 14.6067C235.59 14.6191 235.581 14.6398 235.591 14.6574C235.052 14.6854 234.511 14.7092 233.98 14.7433C233.774 14.7568 233.667 14.7195 233.556 14.6884C233.373 14.6387 233.132 14.7112 232.959 14.647C232.855 14.6087 232.705 14.587 232.525 14.6056C232.421 14.616 232.31 14.6149 232.202 14.6242C231.928 14.647 231.677 14.6481 231.459 14.5766C231.384 14.5518 231.276 14.5383 231.198 14.5145C231.107 14.4886 231.019 14.4741 230.911 14.4793C230.425 14.5041 229.943 14.529 229.46 14.5559C229.418 14.558 229.375 14.5735 229.339 14.5849C229.248 14.6139 229.277 14.6367 229.424 14.6553C229.473 14.6615 229.512 14.675 229.558 14.6853C229.646 14.705 229.727 14.7361 229.825 14.7433C229.923 14.7506 230.037 14.7361 230.145 14.7309C230.252 14.7257 230.367 14.7102 230.464 14.7164C230.562 14.7237 230.644 14.7537 230.735 14.7723C230.777 14.7817 230.83 14.7972 230.872 14.7961C231.087 14.7899 231.299 14.7785 231.514 14.7692C231.648 14.7972 231.762 14.8376 231.922 14.8469C232.023 14.8531 232.131 14.8417 232.235 14.8438C232.281 14.8448 232.339 14.8603 232.362 14.8738C232.375 14.8821 232.333 14.9028 232.3 14.9132C232.176 14.9525 232.007 14.9453 231.854 14.9577C231.687 14.9711 231.537 14.967 231.41 14.9266C231.325 14.8997 231.231 14.8852 231.126 14.8904C230.856 14.9038 230.588 14.9194 230.318 14.9308C230.272 14.9328 230.217 14.9235 230.174 14.9163C229.832 14.8531 229.832 14.851 229.59 14.8645C229.235 14.8842 229.235 14.8842 228.997 14.8293C228.951 14.8189 228.902 14.7993 228.863 14.8003C228.485 14.8169 228.11 14.8334 227.735 14.8572C227.611 14.8645 227.526 14.8645 227.435 14.8376C227.357 14.8148 227.265 14.7889 227.168 14.7827C227.067 14.7765 226.956 14.792 226.848 14.7972C226.74 14.8024 226.626 14.8158 226.532 14.8075C226.434 14.7993 226.349 14.7703 226.264 14.7496C226.176 14.7278 226.082 14.7288 225.961 14.7371C225.589 14.7609 225.586 14.7578 225.218 14.6936C225.175 14.6864 225.12 14.6781 225.074 14.6802C224.804 14.6926 224.536 14.7081 224.265 14.7206C224.161 14.7257 224.06 14.7123 223.988 14.6822C223.959 14.6698 223.969 14.6491 223.949 14.6087C223.926 14.5994 223.952 14.616 223.959 14.6315C224.008 14.6294 224.067 14.6315 224.102 14.6232C224.194 14.6035 224.239 14.5776 224.217 14.5559C224.203 14.5445 224.142 14.53 224.102 14.53C224.031 14.53 223.969 14.5528 223.949 14.6087C223.744 14.6429 223.525 14.6501 223.313 14.6667C223.189 14.6771 223.111 14.6719 223.013 14.645C222.896 14.6118 222.775 14.5797 222.583 14.5963C222.374 14.6149 222.152 14.618 221.937 14.6325C221.689 14.6491 221.582 14.5559 221.373 14.558C221.158 14.56 220.943 14.5777 220.727 14.5901C220.538 14.6004 220.538 14.6004 220.147 14.5331C220.003 14.5083 219.834 14.5445 219.694 14.5186C219.599 14.5021 219.518 14.4772 219.426 14.4596C219.387 14.4524 219.325 14.4524 219.276 14.4544C219.006 14.4669 218.732 14.4751 218.471 14.4979C218.174 14.5248 217.949 14.4959 217.737 14.4348C217.47 14.4461 217.199 14.4524 216.935 14.472C216.743 14.4865 216.632 14.4524 216.501 14.4244C216.456 14.4151 216.417 14.3995 216.368 14.3954C216.319 14.3913 216.26 14.3995 216.208 14.4026C215.993 14.414 215.771 14.4192 215.562 14.4379C215.305 14.4617 215.207 14.3768 215.008 14.3664C214.874 14.4171 214.802 14.4865 214.538 14.4917C214.323 14.4958 214.108 14.5124 213.893 14.5238C213.785 14.529 213.677 14.5352 213.57 14.5404C213.397 14.5497 213.315 14.5901 213.351 14.6522C213.371 14.6864 213.387 14.7206 213.403 14.7547C213.436 14.8158 213.355 14.8676 213.218 14.8748C212.839 14.8945 212.464 14.9152 212.086 14.9328C211.985 14.938 211.887 14.9204 211.806 14.8924C211.721 14.8645 211.626 14.8521 211.522 14.8572C211.144 14.8769 210.769 14.8976 210.39 14.9152C210.348 14.9173 210.293 14.9069 210.25 14.8987C210.159 14.88 210.071 14.8583 209.983 14.8386C209.768 14.8479 209.556 14.8541 209.344 14.8666C209.001 14.8852 209.001 14.8862 208.75 14.8293C208.705 14.8189 208.659 14.7993 208.617 14.8003C208.453 14.8044 208.294 14.8148 208.131 14.8241C207.651 14.851 207.651 14.851 207.511 14.82C207.384 14.791 207.27 14.7558 207.077 14.7723C206.869 14.791 206.647 14.7972 206.432 14.8075C206.272 14.8148 206.112 14.8231 205.952 14.8251C205.91 14.8262 205.864 14.8065 205.819 14.7961C205.688 14.764 205.561 14.7382 205.382 14.7558C205.277 14.7661 205.166 14.7682 205.059 14.7734C204.778 14.7879 204.778 14.7879 204.319 14.7257C204.273 14.7195 204.218 14.7123 204.172 14.7154C203.794 14.734 203.419 14.7547 203.04 14.7723C202.995 14.7744 202.939 14.7682 202.894 14.763C202.378 14.7029 202.378 14.703 201.831 14.7319C201.622 14.7423 201.615 14.7464 201.397 14.6916C201.299 14.6677 201.218 14.6564 201.103 14.6636C200.673 14.6885 200.239 14.705 199.812 14.734C199.62 14.7464 199.509 14.7154 199.378 14.6874C199.333 14.6781 199.284 14.6574 199.245 14.6584C198.814 14.6781 198.384 14.7019 197.953 14.7216C197.914 14.7237 197.865 14.703 197.82 14.6936C197.732 14.675 197.647 14.647 197.549 14.6408C197.448 14.6346 197.337 14.6501 197.226 14.6553C196.956 14.6688 196.956 14.6677 196.642 14.6067C196.6 14.5984 196.545 14.587 196.502 14.589C196.072 14.6098 195.638 14.6274 195.211 14.6574C194.966 14.674 194.8 14.6439 194.627 14.6004C194.591 14.5911 194.529 14.587 194.484 14.589C193.998 14.6129 193.515 14.6398 193.029 14.6636C192.928 14.6688 192.831 14.6512 192.749 14.6242C192.619 14.5818 192.465 14.587 192.302 14.5963C191.927 14.618 191.924 14.617 191.702 14.5673C191.657 14.5569 191.618 14.5435 191.569 14.5383C191.523 14.5331 191.464 14.5362 191.415 14.5383C191.2 14.5487 190.985 14.56 190.77 14.5714C190.554 14.5828 190.336 14.5891 190.124 14.6067C189.863 14.6284 189.739 14.5611 189.557 14.53C189.289 14.5435 189.015 14.5518 188.751 14.5735C188.549 14.5901 188.454 14.5445 188.321 14.5207C188.275 14.5124 188.226 14.4948 188.184 14.4969C187.698 14.5197 187.212 14.5445 186.729 14.5725C186.612 14.5787 186.534 14.5704 186.436 14.5456C186.217 14.4896 186.208 14.4917 185.842 14.5124C185.683 14.5217 185.529 14.53 185.392 14.4876C185.272 14.4493 185.125 14.4399 184.952 14.4524C184.74 14.4679 184.522 14.4762 184.307 14.4865C184.091 14.4979 183.876 14.5134 183.661 14.5186C183.488 14.5238 183.384 14.4751 183.247 14.4503C183.204 14.443 183.146 14.442 183.097 14.4441C182.882 14.4534 182.66 14.4606 182.451 14.4782C182.197 14.5 182.057 14.443 181.877 14.4099C181.838 14.4027 181.773 14.4068 181.724 14.4099C181.346 14.4285 180.971 14.4492 180.592 14.4689C180.459 14.441 180.322 14.4141 180.188 14.3861C179.973 14.3964 179.758 14.4078 179.542 14.4182C179.379 14.4265 179.213 14.4296 179.06 14.4451C178.861 14.4658 178.763 14.4172 178.629 14.3933C178.584 14.385 178.535 14.3674 178.492 14.3695C178.222 14.3809 177.951 14.3933 177.684 14.4109C177.429 14.4285 177.328 14.3353 177.12 14.3364C176.904 14.3374 176.683 14.3509 176.474 14.3695C176.233 14.3913 176.063 14.3581 175.89 14.3136C175.854 14.3043 175.792 14.2991 175.747 14.3012C175.476 14.3136 175.209 14.3291 174.938 14.3416C174.892 14.3436 174.837 14.3385 174.791 14.3322C174.276 14.2711 174.276 14.2701 174.051 14.2825C173.891 14.2908 173.728 14.3012 173.565 14.3064C173.52 14.3084 173.464 14.2991 173.422 14.2908C173.083 14.2277 173.083 14.2266 172.838 14.239C172.623 14.2504 172.408 14.2618 172.192 14.2732C172.059 14.2453 171.922 14.2183 171.788 14.1904C171.521 14.2038 171.247 14.2142 170.983 14.2328C170.859 14.2411 170.777 14.238 170.683 14.2121C170.565 14.1811 170.448 14.1448 170.252 14.1624C170.043 14.1811 169.822 14.1831 169.61 14.1987C169.355 14.2173 169.251 14.1231 169.046 14.1241C168.83 14.1251 168.609 14.1386 168.4 14.1572C168.159 14.179 167.989 14.1459 167.816 14.1013C167.78 14.092 167.719 14.0868 167.673 14.0889C167.079 14.1189 166.489 14.149 165.896 14.1811C165.53 14.2007 165.53 14.2018 164.836 14.1448C164.787 14.1407 164.735 14.1365 164.686 14.1386C164.471 14.1479 164.249 14.1552 164.04 14.1728C163.786 14.1945 163.646 14.1386 163.466 14.1044C163.427 14.0972 163.365 14.1013 163.313 14.1034C163.15 14.1106 162.99 14.12 162.827 14.1283C162.612 14.1396 162.397 14.151 162.182 14.1624C162.048 14.1355 161.911 14.1075 161.777 14.0806C161.51 14.0941 161.236 14.1013 160.972 14.1231C160.77 14.1396 160.675 14.0961 160.541 14.0713C160.496 14.063 160.447 14.0454 160.404 14.0464C159.918 14.0692 159.433 14.093 158.95 14.122C158.751 14.1345 158.66 14.0879 158.526 14.064C158.48 14.0568 158.428 14.0433 158.386 14.0454C158.063 14.0599 157.74 14.0775 157.417 14.0951C157.235 14.1055 157.235 14.1055 156.837 14.0413C156.791 14.034 156.739 14.0268 156.693 14.0288C155.67 14.0806 154.649 14.1355 153.625 14.1873C153.521 14.1924 153.426 14.1769 153.345 14.149C153.26 14.121 153.165 14.1065 153.061 14.1117C152.63 14.1334 152.197 14.1531 151.77 14.18C151.593 14.1914 151.453 14.1779 151.333 14.1417C151.241 14.1148 151.156 14.1044 151.042 14.1106C150.827 14.1231 150.612 14.1334 150.397 14.1448C150.182 14.1562 149.966 14.1676 149.751 14.179C149.536 14.1904 149.317 14.1966 149.105 14.2142C148.845 14.2359 148.717 14.1717 148.538 14.1396C148.215 14.1552 147.892 14.1707 147.573 14.1873C147.142 14.209 146.712 14.2328 146.281 14.2535C146.242 14.2556 146.193 14.237 146.148 14.2277C146.014 14.2018 145.916 14.1655 145.717 14.1769C144.752 14.2318 143.78 14.2784 142.812 14.3322C142.61 14.3436 142.522 14.2991 142.385 14.2753C142.339 14.268 142.287 14.2535 142.245 14.2556C141.706 14.2815 141.168 14.3105 140.63 14.3384C140.412 14.3498 140.412 14.3498 140.047 14.2856C140.004 14.2784 139.949 14.2691 139.903 14.2711C139.202 14.3063 138.504 14.3436 137.803 14.3799C137.699 14.385 137.604 14.3706 137.52 14.3426C137.438 14.3146 137.34 14.2991 137.239 14.3043C136.593 14.3374 135.944 14.3695 135.302 14.4058C135.129 14.4161 134.986 14.4068 134.862 14.3695C134.774 14.3426 134.686 14.3312 134.575 14.3374C133.606 14.3882 132.638 14.4368 131.669 14.4907C131.484 14.501 131.353 14.4814 131.236 14.4472C131.141 14.4203 131.06 14.4151 130.942 14.4192C130.818 14.4244 130.743 14.4358 130.675 14.4669C130.587 14.5072 130.531 14.558 130.323 14.5611C130.107 14.5642 129.889 14.5766 129.677 14.5942C129.475 14.6118 129.38 14.5652 129.253 14.5373C129.159 14.5176 129.071 14.5145 128.95 14.5238C128.839 14.5321 128.771 14.5497 128.705 14.5828C128.562 14.6532 128.549 14.6532 128.373 14.6087C128.278 14.5849 128.193 14.5663 128.089 14.5704C127.659 14.5911 127.228 14.6139 126.798 14.6377C126.55 14.6512 126.547 14.6532 126.361 14.6015C126.269 14.5756 126.181 14.5632 126.074 14.5694C124.89 14.6315 123.706 14.6916 122.523 14.7568C122.34 14.7672 122.216 14.7454 122.086 14.7143C122.043 14.704 122.001 14.6895 121.952 14.6853C121.903 14.6812 121.848 14.6853 121.796 14.6874C120.935 14.7319 120.07 14.7744 119.213 14.8241C119.017 14.8355 118.913 14.8024 118.779 14.7754C118.734 14.7661 118.694 14.7516 118.645 14.7475C118.597 14.7444 118.538 14.7516 118.486 14.7547C117.625 14.7992 116.761 14.8417 115.903 14.8914C115.698 14.9028 115.61 14.8593 115.476 14.8365C115.43 14.8282 115.381 14.8127 115.339 14.8148C115.068 14.8262 114.801 14.8417 114.53 14.8552C113.885 14.8893 113.239 14.9214 112.593 14.9567C112.345 14.9701 112.238 14.8779 112.029 14.8821C111.758 14.8873 111.491 14.908 111.22 14.9225C111.005 14.9339 110.79 14.9442 110.575 14.9567C110.363 14.968 110.363 14.968 109.835 14.908C109.789 14.9028 109.733 14.8956 109.688 14.8976C108.935 14.9359 108.178 14.9743 107.428 15.0157C107.255 15.025 107.112 15.0198 106.988 14.9815C106.9 14.9546 106.809 14.9411 106.701 14.9473C105.569 15.0063 104.441 15.0654 103.31 15.1234C103.267 15.1254 103.212 15.1151 103.169 15.1068C103.078 15.0882 102.99 15.0664 102.902 15.0467C102.837 15.0706 102.752 15.0923 102.71 15.1192C102.651 15.1555 102.573 15.1658 102.449 15.172C102.325 15.1782 102.247 15.1762 102.149 15.1493C102.031 15.1161 101.911 15.0902 101.718 15.1006C100.535 15.1658 99.3508 15.2248 98.1671 15.289C97.9715 15.2994 97.8802 15.2538 97.7433 15.23C97.6976 15.2228 97.6454 15.2114 97.603 15.2135C97.1171 15.2373 96.6345 15.2632 96.1487 15.288C94.8019 15.3584 93.4552 15.4257 92.1117 15.5003C91.8672 15.5138 91.7008 15.4879 91.528 15.4433C91.4921 15.434 91.4302 15.4288 91.3846 15.4309C89.4998 15.5282 87.6149 15.6266 85.7334 15.725C85.6323 15.7302 85.5345 15.7136 85.4529 15.6867C85.3682 15.6587 85.2736 15.6453 85.1693 15.6504C84.3084 15.695 83.4476 15.7395 82.5867 15.7851C82.3715 15.7964 82.3682 15.7975 82.1464 15.7478C82.1008 15.7374 82.0519 15.7177 82.016 15.7198C81.941 15.725 81.8693 15.7509 81.8171 15.7861C81.7649 15.8234 81.6834 15.8337 81.5627 15.841C81.4388 15.8482 81.3573 15.8451 81.2628 15.8203C81.1421 15.7892 81.0312 15.7592 80.8356 15.7695C78.3606 15.9021 75.8855 16.0294 73.4105 16.1609C73.2116 16.1713 73.1203 16.1278 72.9833 16.104C72.9377 16.0967 72.8921 16.0864 72.8431 16.0843C72.791 16.0822 72.7355 16.0885 72.6834 16.0916C68.6464 16.3018 64.6095 16.513 60.5725 16.7232C60.3312 16.7356 60.3344 16.7356 60.0703 16.8309C60.0377 16.8423 59.9953 16.8578 59.9496 16.8599C58.7137 16.9262 57.4746 16.9904 56.2355 17.0546C55.6974 17.0825 55.1594 17.1115 54.6214 17.1385C54.429 17.1478 54.429 17.1478 53.9692 17.2596C53.9301 17.2689 53.8844 17.2814 53.8387 17.2834C51.6865 17.3963 49.5343 17.5092 47.3789 17.62C47.2093 17.6282 47.0724 17.6469 46.9941 17.6966C46.9387 17.7318 46.867 17.7525 46.7594 17.7587C45.2528 17.8374 43.7463 17.9171 42.2366 17.9938C42.0572 18.0031 41.9495 18.0321 41.8615 18.0756C41.8322 18.0901 41.8061 18.1066 41.7637 18.117C41.7245 18.1263 41.6659 18.1294 41.6169 18.1325C40.3256 18.1998 39.0344 18.2692 37.7398 18.3334C37.5474 18.3427 37.4691 18.3811 37.3745 18.4214C37.3419 18.4349 37.3191 18.4535 37.2767 18.4629C37.2343 18.4711 37.1723 18.4711 37.1202 18.4732C36.0441 18.5291 34.968 18.5861 33.8919 18.642C33.6832 18.6368 33.6376 18.6969 33.5365 18.7331C33.5006 18.7456 33.4746 18.7621 33.4322 18.7704C33.3865 18.7787 33.3277 18.7776 33.2723 18.7797C32.4114 18.8242 31.5506 18.8719 30.6865 18.9133C30.4875 18.9226 30.4484 18.9754 30.3408 19.0117C30.3049 19.0231 30.2691 19.0407 30.2267 19.0438C29.6887 19.0738 29.1506 19.1018 28.6126 19.1287C28.4332 19.138 28.4332 19.137 28.1169 19.2395C28.081 19.2509 28.0386 19.2633 27.993 19.2664C27.1875 19.3099 26.3788 19.3513 25.5702 19.3938C25.4658 19.399 25.3941 19.4238 25.3419 19.459C25.2897 19.4942 25.2147 19.517 25.1104 19.5222C24.4647 19.5563 23.819 19.5916 23.1734 19.6226C22.994 19.6309 22.8767 19.6568 22.7984 19.7034C22.7397 19.7386 22.668 19.7562 22.5538 19.7624C21.9082 19.7955 21.2625 19.8318 20.6136 19.8608C20.4245 19.8691 20.3266 19.9043 20.2484 19.9478C20.1864 19.983 20.1147 19.9954 19.994 20.0016C18.8103 20.0617 17.6234 20.1217 16.4429 20.188C16.244 20.1994 16.1429 20.1631 16.0125 20.1373C15.8266 20.101 15.6538 20.0617 15.6538 19.9809C15.6538 19.9685 15.5984 19.954 15.5593 19.9436C15.269 19.866 15.269 19.866 15.2234 19.7831C15.1973 19.7324 15.1679 19.6806 15.1451 19.6288C15.1027 19.5439 14.9983 19.5222 14.6983 19.5377C14.5907 19.5429 14.4831 19.5501 14.3755 19.5543C14.2157 19.5615 14.0951 19.5273 14.0658 19.4652C14.0494 19.431 14.0299 19.3969 14.0136 19.3627C14.1767 19.3544 14.1733 19.3534 14.4603 19.2281C14.581 19.1753 14.581 19.1753 14.3495 19.1225C14.2614 19.1028 14.1766 19.081 14.0821 19.0624C14.0397 19.0541 13.9843 19.0489 13.9386 19.051C13.668 19.0634 13.4006 19.0779 13.1332 19.0924C12.7027 19.1152 12.7027 19.1152 12.2657 19.0096C12.2299 19.0013 12.1744 18.9858 12.181 18.9775C12.2168 18.9392 12.3049 18.9226 12.4157 18.9185C12.5788 18.9123 12.7385 18.9019 12.8983 18.8936C13.0059 18.8884 13.1135 18.8822 13.2212 18.8771C13.3222 18.8377 13.4266 18.7994 13.5212 18.759C13.6712 18.6969 13.6712 18.6948 13.4657 18.6513C13.3353 18.6223 13.1951 18.5964 13.0614 18.5695C12.9016 18.5778 12.7386 18.5871 12.5788 18.5944C12.3766 18.6037 12.2951 18.584 12.2429 18.5167C12.1972 18.4577 12.2527 18.4069 12.4092 18.3945C12.569 18.3821 12.719 18.3738 12.8006 18.321C12.8788 18.2703 13.0158 18.2506 13.1853 18.2464C13.2929 18.2433 13.4005 18.2361 13.5082 18.2299C13.6484 18.2216 13.7234 18.1688 13.694 18.1098C13.6777 18.0714 13.6451 18.0393 13.5179 18.0311C12.9538 17.9948 12.9473 17.9958 12.6668 17.9254C12.6407 17.9192 12.6212 17.9006 12.631 17.8913C12.6473 17.8757 12.6832 17.8529 12.7223 17.8498C13.0973 17.8271 13.4723 17.8064 13.8473 17.7908C13.9712 17.7856 14.0625 17.7784 14.1049 17.7401C14.1636 17.6873 14.1375 17.6386 14.0234 17.6024C13.9875 17.591 13.9288 17.5765 13.8897 17.5775C13.4592 17.5961 13.0321 17.62 12.6016 17.6386C12.5625 17.6407 12.4908 17.6231 12.4745 17.6096C12.4419 17.5848 12.4908 17.5516 12.6049 17.5402C12.7549 17.5247 12.9081 17.5237 13.0092 17.4719C13.1494 17.3984 13.3223 17.3311 13.4788 17.2606C13.5049 17.2482 13.5473 17.2244 13.5375 17.2223C13.456 17.1995 13.3614 17.1819 13.2766 17.1602C13.1332 17.1239 13.1331 17.0732 13.1657 17.0245C13.1918 16.9852 13.2897 16.9697 13.4103 16.9697C13.4625 16.9697 13.5277 16.9697 13.5701 16.9603C13.681 16.9376 13.7168 16.9086 13.6614 16.8868C13.6288 16.8744 13.5701 16.8568 13.531 16.8589C12.8332 16.893 12.132 16.9262 11.4375 16.9686C11.232 16.9811 11.1375 16.9417 11.0136 16.9137C10.919 16.892 10.8309 16.8837 10.7136 16.8992C10.6027 16.9137 10.4951 16.9055 10.4266 16.8713C10.3712 16.8433 10.469 16.8195 10.7331 16.7926C10.7821 16.7874 10.8375 16.7843 10.8733 16.774C11.2516 16.6621 11.2516 16.6611 11.5125 16.6466C11.7668 16.6331 11.7669 16.6321 11.9006 16.572C11.9625 16.5441 12.0309 16.5161 12.0896 16.4871C12.1125 16.4757 12.1516 16.455 12.1386 16.4488C12.0669 16.4167 11.969 16.4095 11.8549 16.4167C11.6005 16.4343 11.3006 16.4198 11.1669 16.5182C11.1147 16.5555 11.0332 16.5658 10.9158 16.572C9.73533 16.6321 8.55485 16.6963 7.37115 16.7543C7.17876 16.7636 7.09077 16.8019 7.01577 16.8444C6.95055 16.8796 6.87879 16.8899 6.75488 16.8961C6.63097 16.9024 6.53309 16.9055 6.46135 16.8713C6.41896 16.8506 6.45484 16.8216 6.55267 16.7926C6.69289 16.7512 6.66679 16.6994 6.62113 16.6507C6.58852 16.6186 6.48744 16.5958 6.37983 16.5979C6.22005 16.6021 6.06683 16.6135 5.93313 16.572C5.85487 16.5482 5.75703 16.5316 5.66898 16.5109C5.49942 16.4685 5.32984 16.425 5.0918 16.4529C4.92875 16.4426 4.81462 16.4053 4.68419 16.3763C4.46571 16.3287 4.44614 16.3214 4.60267 16.2707C4.77875 16.2137 4.64177 16.1392 4.7396 16.0833C4.84395 16.0232 4.98747 15.9704 5.11465 15.9145C5.14726 15.9 5.17662 15.8865 5.20923 15.872C5.13423 15.8513 5.06576 15.8254 4.97772 15.8109C4.86358 15.7923 4.80489 15.7695 4.81141 15.7053C4.78858 15.696 4.7983 15.7198 4.82438 15.726C4.85373 15.7322 4.92553 15.7271 4.9614 15.7198C5.0527 15.7001 5.0983 15.6743 5.07548 15.6525C5.06244 15.6411 5.00053 15.6266 4.9614 15.6266C4.88966 15.6266 4.82771 15.6494 4.80814 15.7053C4.44292 15.7478 4.0646 15.7685 3.68634 15.7851C3.64721 15.7871 3.59832 15.7664 3.55267 15.7561C3.40267 15.7209 3.40265 15.7219 2.96243 15.7115C2.91678 15.7105 2.85486 15.696 2.83203 15.6815C2.73746 15.6183 2.74075 15.549 2.6951 15.4816C2.77988 15.4382 2.8646 15.3957 2.95264 15.3532C3.12873 15.2673 3.35704 15.1917 3.494 15.0975C3.46465 15.0467 3.42551 14.996 3.56899 14.9546C3.9766 14.9028 3.97337 14.9028 4.08424 14.8531C4.40054 14.7123 4.71357 14.5704 5.04292 14.4316C5.13096 14.3954 5.13097 14.3757 4.97445 14.3602C4.92554 14.3561 4.87329 14.355 4.82112 14.3571C4.65808 14.3643 4.49504 14.383 4.33525 14.3788C4.17547 14.3757 4.05808 14.3302 3.92764 14.3022C3.79395 14.2732 3.66026 14.2432 3.52656 14.2132C3.3733 14.2163 3.22007 14.2453 3.0668 14.1987C2.94941 14.1624 2.80268 14.1365 2.66899 14.1065C2.77007 14.0278 2.95923 13.9677 3.10597 13.8984C3.23967 13.8352 3.24286 13.8362 3.60155 13.7876C3.77112 13.7648 3.82982 13.6478 3.68634 13.6136C3.51351 13.5722 3.33094 13.5339 3.15485 13.4945C3.00159 13.4976 2.8451 13.5256 2.69836 13.479C2.58423 13.4438 2.45377 13.42 2.26464 13.4334C1.94507 13.4562 1.619 13.4676 1.29617 13.4862C1.1853 13.4924 1.06461 13.4883 1.0157 13.4531C0.983088 13.4283 1.07766 13.3941 1.18527 13.3868C1.34831 13.3765 1.49504 13.3641 1.57656 13.3123C1.65482 13.2605 1.79828 13.245 1.96785 13.2377C2.0135 13.2356 2.06571 13.2232 2.08854 13.2108C2.20593 13.1507 2.33638 13.099 2.58746 13.101C2.69181 13.0803 2.74721 13.0544 2.7146 13.0296C2.69504 13.0161 2.62659 12.9985 2.58746 13.0006C2.31681 13.0109 2.04617 13.0213 1.78204 13.0399C1.65812 13.0482 1.56351 13.0503 1.48524 13.0192C1.42981 12.9985 1.45915 12.9706 1.5635 12.9405C1.65481 12.9146 1.68092 12.8846 1.6744 12.8494C1.6581 12.7676 1.56025 12.7438 1.24721 12.749C1.02221 12.7531 0.966768 12.7396 0.917855 12.6692C0.904811 12.6527 0.87226 12.6299 0.895086 12.6185C1.0353 12.5481 1.12661 12.4611 1.39075 12.428C1.49509 12.4155 1.60592 12.4155 1.67114 12.3886C1.73635 12.3617 1.79508 12.3306 1.86356 12.3047C1.94834 12.2737 2.00698 12.2447 1.96785 12.225C1.90263 12.1898 1.79832 12.1867 1.67767 12.1991C1.57332 12.2095 1.46245 12.2105 1.35484 12.2167C1.16245 12.2281 1.00596 12.2012 0.983136 12.1556C0.921179 12.0355 0.855942 11.9164 0.800507 11.7963C0.793986 11.7818 0.810245 11.7632 0.836333 11.7507C0.927637 11.7072 1.0255 11.6658 1.12007 11.6234C1.23094 11.5747 1.40705 11.584 1.55705 11.5747C1.76901 11.5612 1.76894 11.5623 2.05263 11.4629C2.1635 11.4235 2.35591 11.439 2.47004 11.4038C2.50591 11.3925 2.56134 11.3738 2.55156 11.3635C2.53852 11.35 2.47333 11.3396 2.42442 11.3334C2.37877 11.3272 2.32335 11.3241 2.27443 11.3272C1.68095 11.3572 1.09075 11.3893 0.497268 11.4183C0.39618 11.4235 0.285307 11.4007 0.249438 11.3686C0.213568 11.3386 0.223319 11.3024 0.216797 11.2682C0.311362 11.2257 0.41893 11.1864 0.500452 11.1408C0.562409 11.1056 0.634161 11.0901 0.758075 11.088C0.921119 11.0849 1.08092 11.0725 1.26353 11.0632C1.60266 10.912 1.93525 10.7535 2.30047 10.6024C2.4472 10.5413 2.41139 10.4791 2.44074 10.4139C2.47009 10.3538 2.68855 10.3632 2.83529 10.3456C2.95269 10.3311 2.99177 10.2979 2.94611 10.2751C2.92003 10.2617 2.86136 10.2461 2.81571 10.2461C2.7081 10.2461 2.60049 10.2555 2.49289 10.2606C2.38528 10.2658 2.26137 10.2627 2.17333 10.2803C2.08854 10.2969 2.03308 10.3321 1.97764 10.3621C1.91568 10.3953 1.83422 10.4067 1.71031 10.4087C1.55052 10.4108 1.39075 10.4201 1.23097 10.4274C1.05488 10.387 0.872231 10.3476 0.702665 10.3052C0.670056 10.2969 0.663499 10.2731 0.66676 10.2575C0.673282 10.2172 0.624382 10.1923 0.516773 10.1726C0.425468 10.1561 0.350461 10.1322 0.265678 10.1115C0.330896 10.0836 0.402661 10.0566 0.454835 10.0266C0.568966 9.96345 0.71246 9.9179 0.960287 9.91997C1.05811 9.87959 1.13635 9.82988 1.26353 9.80192C1.38418 9.775 1.58962 9.80191 1.68093 9.74082C1.72658 9.71079 1.7951 9.67662 1.88314 9.66419C2.02336 9.64452 2.20597 9.65488 2.28749 9.5969C2.3364 9.56376 2.40811 9.53372 2.50268 9.52544C2.61029 9.51612 2.72113 9.51406 2.79939 9.49438C2.84178 9.48403 2.88744 9.46746 2.88744 9.45296C2.88744 9.44364 2.82227 9.42914 2.77662 9.42293C2.73423 9.41568 2.67873 9.4105 2.62982 9.41257C2.46677 9.41879 2.30699 9.43017 2.14395 9.43639C2.0983 9.43846 2.04614 9.43121 1.99723 9.425C1.85375 9.40843 1.86351 9.38772 1.97764 9.35045C2.09177 9.3142 2.17334 9.2676 2.2679 9.22514C2.37225 9.21789 2.50267 9.221 2.57441 9.20133C2.69506 9.16923 2.77982 9.12263 2.87765 9.08224C2.98526 9.07603 3.09612 9.07396 3.19721 9.06257C3.2396 9.05843 3.25918 9.03565 3.29505 9.02219C3.36027 8.9963 3.41575 8.95902 3.50379 8.9466C3.64727 8.92796 3.82335 8.9352 3.90814 8.87825C3.95705 8.84511 4.03202 8.80991 4.12333 8.80784C4.37768 8.8037 4.48529 8.74674 4.61572 8.69289C4.71355 8.65251 4.92225 8.67322 5.02986 8.63284C5.1016 8.60695 5.15381 8.57484 5.22555 8.54999C5.25489 8.53964 5.31683 8.53447 5.36574 8.53136C5.63313 8.51583 5.90378 8.50443 6.17117 8.48786C6.21356 8.48476 6.25272 8.46923 6.28533 8.45681C6.35381 8.42988 6.39615 8.3926 6.48094 8.375C6.56572 8.3574 6.68636 8.3574 6.79071 8.35222C7.12658 8.33669 7.15269 8.34082 7.30595 8.2528C7.42986 8.18135 7.73316 8.2321 7.83425 8.1534C7.89295 8.10784 8.00051 8.07056 8.1929 8.06538C8.46355 8.05814 8.73094 8.03846 9.00159 8.025C9.2429 8.01257 9.23965 8.01257 9.50052 7.91627C9.61791 7.87277 9.79077 7.87899 9.94403 7.87071C10.1071 7.86243 10.2571 7.85 10.3353 7.79823C10.4136 7.74749 10.557 7.73091 10.7233 7.72366C10.8766 7.71642 11.0495 7.7216 11.1701 7.68018C11.4636 7.58077 11.4604 7.57973 11.6658 7.56938C11.9886 7.55281 12.3114 7.53624 12.6343 7.51864C12.8495 7.50725 13.0745 7.50518 13.2766 7.4824C13.4234 7.46583 13.4886 7.40784 13.5831 7.36746C13.8505 7.35192 14.1179 7.33639 14.3853 7.32189C14.7603 7.30118 15.1386 7.28255 15.5168 7.26287C15.6799 7.22352 15.7027 7.13654 15.9767 7.1324C16.1397 7.13033 16.2995 7.11687 16.4625 7.10858C16.7332 7.09408 17.0006 7.07544 17.2712 7.0682C17.4767 7.06302 17.5125 7.0071 17.6201 6.97189C17.656 6.95946 17.6886 6.94186 17.731 6.93876C18.1549 6.90976 18.5918 6.90355 19.006 6.8611C19.0483 6.85695 19.0875 6.83521 19.0973 6.81967C19.1038 6.81139 19.0484 6.79586 19.0125 6.78862C18.9701 6.78033 18.9147 6.77205 18.869 6.77412C17.5223 6.8435 16.1756 6.91391 14.8288 6.98329C14.6397 6.99365 14.6397 6.9926 14.1799 7.10651C14.1408 7.11583 14.0951 7.12618 14.0462 7.12929C13.8309 7.14171 13.6125 7.14897 13.4005 7.1645C13.2277 7.17693 13.0843 7.16449 12.9603 7.12721C12.8723 7.10029 12.781 7.09201 12.6701 7.09408C12.5462 7.09719 12.4647 7.10858 12.393 7.13654C12.2984 7.17486 12.2495 7.22456 12.0505 7.23491C11.1342 7.27944 10.2179 7.32914 9.30483 7.37677C9.17766 7.36228 9.11571 7.34053 9.14832 7.31465C9.16788 7.29911 9.20703 7.2784 9.24616 7.27633C9.62116 7.25459 9.99941 7.23595 10.3744 7.21524C10.4266 7.21214 10.4983 7.2142 10.5277 7.20384C10.6711 7.15724 10.7234 7.08165 10.994 7.07648C11.1505 7.07337 11.3103 7.05784 11.4603 7.04334C11.5027 7.0392 11.5418 7.01746 11.5516 7.00192C11.5549 6.99364 11.5027 6.9781 11.4636 6.97085C11.3201 6.94082 11.1538 6.97708 11.0103 6.95637C10.9614 6.94912 10.8929 6.93876 10.8831 6.92633C10.8766 6.91494 10.932 6.8963 10.9712 6.88491C11.007 6.87456 11.0559 6.86524 11.1048 6.86213C11.5353 6.83832 11.9658 6.81346 12.3962 6.79482C12.5723 6.78757 12.6962 6.76168 12.7745 6.71405C12.8332 6.67884 12.9049 6.66021 13.0158 6.65503C13.769 6.61672 14.5223 6.57426 15.2788 6.53906C15.4679 6.53077 15.5658 6.4966 15.644 6.45208C15.706 6.41687 15.7778 6.40444 15.8984 6.39823C16.9778 6.34438 18.0506 6.28433 19.1299 6.23255C19.3288 6.22323 19.3876 6.1787 19.4886 6.14039C19.5245 6.12693 19.5473 6.11036 19.5929 6.10208C19.6386 6.09379 19.6973 6.09482 19.7527 6.09275C20.6136 6.04822 21.4745 6.0006 22.3386 5.95918C22.5408 5.94986 22.5799 5.89808 22.6842 5.86183C22.7201 5.85044 22.7527 5.83181 22.7951 5.8287C23.4408 5.7935 24.0864 5.76036 24.7321 5.72619C25.1625 5.70341 25.5929 5.68063 26.0234 5.65888C26.2353 5.64852 26.2353 5.64748 26.5223 5.54911C26.5549 5.53772 26.6006 5.52426 26.643 5.52115C27.8821 5.45488 29.118 5.39172 30.3571 5.32649C30.4615 5.32131 30.5364 5.29748 30.5886 5.26227C30.6408 5.22707 30.7159 5.20325 30.8169 5.19807C31.7854 5.1463 32.7539 5.09556 33.7256 5.0469C33.9017 5.03861 34.0256 5.01376 34.1039 4.96716C34.1625 4.93195 34.2343 4.91332 34.3452 4.90814C35.3136 4.85844 36.2822 4.80562 37.2539 4.75799C37.4398 4.74867 37.5311 4.71346 37.6224 4.67204C37.655 4.65755 37.6811 4.63373 37.7202 4.63166C38.2028 4.60266 38.6821 4.57263 39.168 4.55296C39.3702 4.54467 39.4387 4.50118 39.5202 4.45976C39.5854 4.42662 39.6604 4.41524 39.7844 4.4111C40.055 4.40178 40.3224 4.38418 40.5865 4.36658C40.6257 4.36347 40.6746 4.34069 40.6778 4.32619C40.6844 4.29927 40.6093 4.28062 40.4854 4.27131C39.1941 4.33861 37.8996 4.40592 36.6083 4.47322C36.3963 4.48461 36.3963 4.48462 36.1093 4.58299C36.0767 4.59438 36.031 4.60785 35.9854 4.61095C34.7463 4.67619 33.5104 4.74039 32.2713 4.80563C32.1669 4.8108 32.0919 4.83462 32.0398 4.86983C31.9876 4.90504 31.9125 4.92885 31.8114 4.93403C30.6277 4.99616 29.4441 5.05933 28.2571 5.11835C28.081 5.12664 27.9571 5.15044 27.8789 5.19807C27.8202 5.23328 27.7484 5.25193 27.6376 5.2571C26.5061 5.31509 25.3777 5.37618 24.243 5.4321C24.1288 5.43728 24.0441 5.40725 24.0506 5.37929C24.0539 5.36479 24.1027 5.34098 24.1418 5.33891C24.7321 5.30474 25.3191 5.26953 25.9126 5.24364C26.1115 5.23536 26.1701 5.1898 26.2712 5.15148C26.3038 5.13802 26.3299 5.12042 26.3723 5.11317C26.418 5.10488 26.4767 5.10592 26.5321 5.10385C27.931 5.03033 29.33 4.95578 30.7322 4.8864C30.9343 4.87604 30.9734 4.8253 31.0777 4.78906C31.1136 4.77663 31.1463 4.758 31.1886 4.75593C31.6191 4.73107 32.0495 4.70932 32.4799 4.68758C33.2332 4.64823 33.9865 4.60888 34.743 4.56953C34.9615 4.55814 34.9615 4.55813 35.2419 4.4608C35.2745 4.44941 35.3202 4.43492 35.3626 4.43285C37.355 4.32826 39.3474 4.22368 41.3398 4.12013C41.4442 4.11495 41.5191 4.09113 41.5713 4.05593C41.6235 4.02175 41.6985 3.9969 41.7996 3.99069C44.4931 3.84986 47.1833 3.70903 49.8768 3.57027C50.0529 3.56095 50.1767 3.5392 50.255 3.49053C50.3104 3.45533 50.3854 3.43669 50.4963 3.43048C53.4572 3.27619 56.4181 3.1219 59.3822 2.96658C61.3746 2.86303 63.367 2.7574 65.3594 2.65593C65.542 2.64661 65.6398 2.6145 65.7311 2.57204C65.7605 2.55755 65.7899 2.53373 65.829 2.53166C66.2562 2.50577 66.6833 2.48196 67.1105 2.45814C67.2442 2.4861 67.3779 2.51303 67.5116 2.54099C67.6127 2.50164 67.7105 2.46125 67.8116 2.4219C68.4573 2.39187 69.0931 2.34527 69.7453 2.33078C69.7877 2.32974 69.8333 2.34942 69.879 2.35977C70.1822 2.42501 70.3551 2.41983 70.5475 2.33285C70.6159 2.30178 70.6746 2.27383 70.779 2.26865C71.1018 2.25001 71.428 2.23758 71.7475 2.21584C71.9204 2.20445 72.0638 2.2148 72.1877 2.25208C72.2757 2.279 72.3671 2.2904 72.4747 2.28418C73.0682 2.25312 73.6584 2.22309 74.2519 2.18995C74.2943 2.18788 74.3333 2.17027 74.366 2.15784C74.4344 2.13092 74.4931 2.10193 74.5584 2.07397C74.6464 2.09158 74.7443 2.10504 74.816 2.12782C74.9073 2.15474 74.9921 2.15474 75.116 2.14749C77.4834 2.02219 79.854 1.90001 82.2214 1.77368C82.4236 1.76332 82.5117 1.80682 82.6486 1.8296C82.6943 1.83788 82.7399 1.84823 82.7888 1.8503C82.841 1.85237 82.8964 1.84617 82.9486 1.84306C84.7258 1.74986 86.503 1.6577 88.2802 1.5645C88.515 1.55208 88.515 1.55208 88.8639 1.61628C88.9063 1.62456 88.9617 1.63388 89.0074 1.63078C89.8161 1.59039 90.6247 1.5469 91.4302 1.50548C91.5345 1.50031 91.6226 1.51687 91.7172 1.54069C91.903 1.58729 91.916 1.58729 92.053 1.51895C92.1182 1.48685 92.1867 1.46716 92.2943 1.45784C92.4117 1.44749 92.5063 1.4506 92.5976 1.46924C92.728 1.49513 92.8226 1.53862 93.0215 1.52723C93.8824 1.47856 94.7465 1.43818 95.6041 1.38847C95.7998 1.37708 95.9041 1.41229 96.0346 1.43817C96.0802 1.44749 96.1226 1.46199 96.1715 1.4651C96.2204 1.4682 96.2791 1.46095 96.3313 1.45784C97.4074 1.40193 98.4867 1.34705 99.5595 1.28699C99.7617 1.2756 99.8498 1.32012 99.9867 1.3429C100.032 1.35119 100.085 1.36569 100.127 1.36362C100.773 1.33152 101.422 1.29734 102.067 1.26317C102.299 1.25074 102.299 1.25178 102.651 1.31494C102.693 1.32323 102.749 1.33151 102.794 1.32944C103.548 1.29113 104.304 1.25178 105.057 1.21243C105.289 1.2 105.289 1.20001 105.957 1.25385C106.006 1.25799 106.058 1.26421 106.107 1.26214C106.968 1.21762 107.832 1.17412 108.693 1.12649C108.866 1.11717 109.01 1.12545 109.134 1.16273C109.222 1.18965 109.313 1.20105 109.42 1.19483C110.389 1.14409 111.361 1.09543 112.326 1.04158C112.512 1.03123 112.632 1.054 112.763 1.08403C112.805 1.09438 112.848 1.10888 112.897 1.11302C112.945 1.11717 113.001 1.11302 113.053 1.10992C114.022 1.05918 114.993 1.01154 115.959 0.956663C116.154 0.945273 116.259 0.980478 116.389 1.00637C116.435 1.01568 116.484 1.03432 116.523 1.03329C116.901 1.01569 117.279 1.00016 117.654 0.974271C117.856 0.959774 117.944 1.0074 118.081 1.03018C118.127 1.03743 118.179 1.05297 118.222 1.0509C119.03 1.01051 119.839 0.96806 120.644 0.924569C120.759 0.918356 120.843 0.927667 120.935 0.95459C121.055 0.990833 121.196 1.00533 121.372 0.99394C121.747 0.970123 122.125 0.95356 122.503 0.933885C122.725 0.922495 122.725 0.922498 123.403 0.976344C123.452 0.980486 123.504 0.986695 123.553 0.984624C124.199 0.951488 124.848 0.919389 125.49 0.883146C125.663 0.872791 125.806 0.882108 125.93 0.919387C126.018 0.94631 126.106 0.957706 126.217 0.951493C126.811 0.920428 127.401 0.88936 127.994 0.858295C128.21 0.846905 128.425 0.827225 128.64 0.827225C128.797 0.828261 128.911 0.877963 129.051 0.902815C129.09 0.910063 129.155 0.901789 129.208 0.899718C129.961 0.860369 130.717 0.824123 131.467 0.779596C131.663 0.768206 131.767 0.803411 131.898 0.829298C131.943 0.838618 131.992 0.857258 132.031 0.856222C132.302 0.844832 132.569 0.829298 132.84 0.815836C133.163 0.799268 133.489 0.786842 133.809 0.764061C134.069 0.745422 134.167 0.835508 134.376 0.838614C134.536 0.841721 134.699 0.82412 134.859 0.815836C135.181 0.799268 135.504 0.780631 135.827 0.766134C135.941 0.760957 136.029 0.744382 136.065 0.707104C136.072 0.699855 136.016 0.684329 135.98 0.67501C135.547 0.569388 135.547 0.569383 135.11 0.592164C134.839 0.606661 134.572 0.621161 134.301 0.633587C134.255 0.635658 134.203 0.627374 134.158 0.621161C134.027 0.603558 134.04 0.58285 134.151 0.545572C134.262 0.508294 134.347 0.462736 134.441 0.42028C134.575 0.447203 134.705 0.474117 134.839 0.50104C134.947 0.495862 135.054 0.489658 135.162 0.484481C135.7 0.457558 136.238 0.429597 136.776 0.404745C136.815 0.402674 136.864 0.423387 136.91 0.433742C137.04 0.463772 137.158 0.489652 137.347 0.478262C137.829 0.448232 138.315 0.426487 138.798 0.400599C139.01 0.389209 139.01 0.38921 139.381 0.453411C139.424 0.460659 139.479 0.468944 139.525 0.466873C140.011 0.443056 140.493 0.417172 140.979 0.39232C141.084 0.387142 141.185 0.400603 141.26 0.430633C141.289 0.443059 141.283 0.463765 141.406 0.633587C141.791 0.771309 142.055 0.756819 142.323 0.744393C142.437 0.739215 142.538 0.734033 142.613 0.713323C142.652 0.701932 142.701 0.685362 142.701 0.6719C142.701 0.661545 142.629 0.644974 142.584 0.642903C142.261 0.622193 141.954 0.66569 141.638 0.67501C141.491 0.679152 141.364 0.642909 141.338 0.583885C141.331 0.567317 141.322 0.549714 141.312 0.533146C141.302 0.516578 141.296 0.498976 141.286 0.482408C141.159 0.47723 141.084 0.495866 141.028 0.531073C140.983 0.560067 140.917 0.593203 140.829 0.608736C140.741 0.625304 140.621 0.622203 140.513 0.627381C140.409 0.632558 140.294 0.646018 140.197 0.63877C140.099 0.630486 140.021 0.600451 139.929 0.581812C139.887 0.572492 139.835 0.559036 139.792 0.561107C139.417 0.57871 139.046 0.596307 138.674 0.619088C138.478 0.631514 138.38 0.58803 138.256 0.561107C138.159 0.540397 138.061 0.545568 138.044 0.593201C138.002 0.707106 138.152 0.754737 138.485 0.732991C138.759 0.714352 139.006 0.711255 139.222 0.781669C139.251 0.790989 139.319 0.795129 139.362 0.793058C139.629 0.780632 139.893 0.765098 140.161 0.752672C140.21 0.750601 140.262 0.754737 140.308 0.758879C140.973 0.814796 140.973 0.815837 141.198 0.803411C141.305 0.797198 141.41 0.79202 141.4 0.634623C141.605 0.465837 141.931 0.454448 142.248 0.429596C142.453 0.414064 142.541 0.459628 142.675 0.483444C142.721 0.491728 142.77 0.508293 142.812 0.506222C143.513 0.472051 144.211 0.435803 144.909 0.39749C145.026 0.391277 145.111 0.397491 145.202 0.424414C145.319 0.458585 145.45 0.480335 145.636 0.467909C146.008 0.443057 146.386 0.427528 146.764 0.406818C146.956 0.396463 146.956 0.396453 147.344 0.460654C147.387 0.467902 147.442 0.476187 147.488 0.474116C147.866 0.456512 148.241 0.434773 148.616 0.416134C148.721 0.410957 148.815 0.425452 148.897 0.453411C148.978 0.481369 149.076 0.495865 149.177 0.490687C149.555 0.472048 149.93 0.451345 150.305 0.432706C150.351 0.430635 150.406 0.437883 150.449 0.445131C150.847 0.509332 150.847 0.509322 151.029 0.498967C151.297 0.483434 151.571 0.476194 151.835 0.455484C152.092 0.434774 152.226 0.494828 152.402 0.527964C152.885 0.504147 153.371 0.484478 153.85 0.455484C154.046 0.443058 154.15 0.477226 154.28 0.504149C154.326 0.513469 154.372 0.533145 154.414 0.53211C154.577 0.527968 154.737 0.516579 154.897 0.508295C155.057 0.500011 155.22 0.491728 155.379 0.483444C155.562 0.513474 155.683 0.583887 155.943 0.56007C156.1 0.545573 156.266 0.542467 156.426 0.534183C156.586 0.525899 156.749 0.517616 156.909 0.509332C157.016 0.504154 157.127 0.501043 157.232 0.491724C157.424 0.476191 157.518 0.526937 157.655 0.549718C157.701 0.556966 157.753 0.569384 157.796 0.567313C158.118 0.552816 158.445 0.540391 158.761 0.516575C159.005 0.497936 159.172 0.529005 159.345 0.572496C159.38 0.581815 159.442 0.586992 159.488 0.584921C159.866 0.567318 160.241 0.545566 160.616 0.526927C160.717 0.52175 160.815 0.538317 160.897 0.56524C160.982 0.593199 161.076 0.606671 161.18 0.601493C161.555 0.582854 161.934 0.562138 162.309 0.543499C162.354 0.541428 162.41 0.549713 162.452 0.557997C162.817 0.622198 162.817 0.623235 163.033 0.610809C163.085 0.607702 163.14 0.605623 163.192 0.602517C163.46 0.58802 163.737 0.582849 163.998 0.557997C164.298 0.530039 164.516 0.565247 164.728 0.624271C164.996 0.611845 165.27 0.604595 165.53 0.583885C165.726 0.568352 165.83 0.607699 165.961 0.633587C166.007 0.642907 166.055 0.661546 166.095 0.659475C166.473 0.641871 166.851 0.626344 167.223 0.600456C167.425 0.585959 167.513 0.632548 167.65 0.656365C167.696 0.664649 167.745 0.679154 167.787 0.677083C168.002 0.668799 168.217 0.656366 168.433 0.644976C168.684 0.631514 168.684 0.632549 169.016 0.695715C169.173 0.725744 169.329 0.701927 169.483 0.694678C169.646 0.686394 169.799 0.680183 169.929 0.722639C170.011 0.749562 170.109 0.76613 170.21 0.761988C170.425 0.752669 170.644 0.743354 170.855 0.727821C171.025 0.715395 171.172 0.723675 171.296 0.761988C171.384 0.788911 171.475 0.802381 171.583 0.796168C172.065 0.771316 172.551 0.745419 173.034 0.721602C173.076 0.719531 173.135 0.728854 173.174 0.738174C173.265 0.756813 173.353 0.777518 173.441 0.798228C173.653 0.788909 173.872 0.784777 174.08 0.77028C174.302 0.755783 174.504 0.750604 174.677 0.807557C174.713 0.819983 174.765 0.837577 174.808 0.836541C174.971 0.832399 175.13 0.822047 175.29 0.813763C175.45 0.805479 175.613 0.797196 175.773 0.788912C175.959 0.8148 176.076 0.889355 176.337 0.865538C176.494 0.851041 176.66 0.847935 176.82 0.839651C176.979 0.831367 177.142 0.822048 177.302 0.8148C177.354 0.812729 177.413 0.807548 177.459 0.81169C177.508 0.815832 177.55 0.830332 177.592 0.840687C177.723 0.870717 177.844 0.90075 178.029 0.883146C178.186 0.868649 178.352 0.865542 178.512 0.856222C178.73 0.844832 178.731 0.844834 179.092 0.910071C179.239 0.936994 179.405 0.901788 179.546 0.924569C179.64 0.940102 179.722 0.965984 179.813 0.983587C179.852 0.990836 179.914 0.993938 179.96 0.991867C180.175 0.982547 180.394 0.973232 180.605 0.9577C180.778 0.945274 180.922 0.957698 181.042 0.994976C181.131 1.0219 181.219 1.0333 181.329 1.02708C181.867 0.998089 182.406 0.973229 182.94 0.941128C183.123 0.929737 183.27 0.947346 183.371 0.984624C183.544 1.04882 183.788 0.973235 183.967 1.02501C184.078 1.05711 184.189 1.09439 184.391 1.07886C184.763 1.05193 185.141 1.03743 185.516 1.01879C185.65 1.04675 185.784 1.07471 185.921 1.10267C186.136 1.09128 186.351 1.07988 186.566 1.06953C186.726 1.06125 186.889 1.05193 187.049 1.04468C187.101 1.04261 187.157 1.03846 187.206 1.04364C187.254 1.04882 187.294 1.06228 187.339 1.07264C187.564 1.12338 187.564 1.12442 187.936 1.10371C188.096 1.09439 188.249 1.08818 188.383 1.1296C188.507 1.16791 188.653 1.17515 188.823 1.16376C189.142 1.14305 189.465 1.12752 189.791 1.11302C189.893 1.10785 189.987 1.12545 190.072 1.15237C190.199 1.19483 190.356 1.19069 190.515 1.1793C190.727 1.1648 190.936 1.15031 191.115 1.2083C191.151 1.22072 191.207 1.23832 191.246 1.23728C191.513 1.229 191.784 1.22279 192.045 1.20311C192.306 1.18344 192.433 1.24764 192.612 1.2787C192.879 1.26524 193.15 1.25178 193.418 1.23832C193.47 1.23521 193.532 1.2259 193.577 1.23107C193.77 1.25282 193.881 1.33048 194.145 1.30666C194.298 1.2932 194.464 1.28906 194.624 1.28596C194.666 1.28492 194.722 1.30252 194.751 1.31598C194.768 1.32323 194.751 1.3429 194.732 1.35326C194.673 1.38225 194.601 1.40918 194.549 1.43921C194.542 1.44335 194.604 1.46198 194.64 1.47027C194.728 1.48891 194.829 1.48581 194.947 1.47752C195.048 1.47027 195.152 1.48477 195.224 1.51584C195.253 1.52826 195.244 1.54897 195.182 1.61731C195.182 1.66805 195.25 1.64527 195.273 1.61213C195.309 1.5645 195.24 1.54897 195.11 1.57485C195.019 1.59349 194.973 1.62042 194.996 1.64216C195.009 1.65356 195.071 1.66805 195.182 1.61731C195.469 1.55518 195.684 1.5438 195.899 1.53241C195.954 1.5293 196.02 1.51894 196.059 1.52515C196.199 1.55 196.329 1.58004 196.466 1.608C196.623 1.60178 196.77 1.58625 196.923 1.62663C197.138 1.68358 197.148 1.67841 197.357 1.66702C197.464 1.6608 197.572 1.65563 197.68 1.65046C197.787 1.64528 197.872 1.66081 197.966 1.68462C198.159 1.73329 198.175 1.73329 198.302 1.66702C198.377 1.62663 198.429 1.61317 198.524 1.63181C198.837 1.69498 198.84 1.69912 199.108 1.68048C199.329 1.66495 199.538 1.6608 199.701 1.71983C199.812 1.76125 199.848 1.75193 199.936 1.70844C200.171 1.5935 200.278 1.59556 200.719 1.6784C200.924 1.71775 201.136 1.6753 201.345 1.67013C201.521 1.66598 201.645 1.69083 201.658 1.75607C201.668 1.79645 201.697 1.82545 201.814 1.83891C201.86 1.84409 201.915 1.85134 201.961 1.84926C202.232 1.83684 202.499 1.82234 202.77 1.80784C202.907 1.80059 202.982 1.75193 202.956 1.68773C202.926 1.61939 202.978 1.59453 203.174 1.57485C203.291 1.56346 203.386 1.56554 203.481 1.58418C203.585 1.60489 203.556 1.62353 203.464 1.66081C203.246 1.75193 203.272 1.80784 203.552 1.87101C203.65 1.89275 203.728 1.91244 203.751 1.94454C203.764 1.9611 203.751 1.98285 203.781 1.99527C203.94 2.06465 204.162 2.10918 204.41 2.14232C204.648 2.11436 204.811 2.16095 204.994 2.19823C205.137 2.22722 205.307 2.20238 205.46 2.19202C205.633 2.18063 205.776 2.18891 205.9 2.22723C205.988 2.25415 206.079 2.26657 206.187 2.26139C206.402 2.25 206.621 2.24276 206.833 2.22619C207.015 2.21169 207.152 2.2324 207.266 2.26761C207.41 2.31214 207.57 2.2821 207.72 2.28832C207.922 2.29557 208.023 2.38772 208.287 2.36287C208.444 2.34837 208.607 2.3432 208.77 2.33906C208.812 2.33802 208.864 2.35563 208.9 2.36805C209.073 2.425 209.275 2.4219 209.497 2.40533C209.65 2.39394 209.8 2.38359 209.95 2.42294C210.198 2.48921 210.472 2.5472 210.733 2.6083C210.769 2.65593 210.743 2.71184 210.928 2.73979C211.026 2.75429 211.118 2.77604 211.193 2.79986C211.284 2.82782 211.369 2.83507 211.486 2.82782C211.698 2.81332 211.92 2.81021 212.128 2.79157C212.321 2.775 212.441 2.80918 212.559 2.84128C212.653 2.86717 212.742 2.87959 212.856 2.86095C212.973 2.84335 213.058 2.85474 213.152 2.88269C213.286 2.92101 213.296 2.91687 213.739 2.92826C213.785 2.9293 213.84 2.94482 213.866 2.95828C213.88 2.96553 213.85 2.98625 213.827 2.99661C213.798 3.00904 213.752 3.02352 213.71 3.02663C213.227 3.05355 212.742 3.07737 212.259 3.10429C212.21 3.1074 212.158 3.11466 212.122 3.12501C212.083 3.1364 212.034 3.15192 212.034 3.16642C212.034 3.17678 212.099 3.18921 212.145 3.19645C212.288 3.22027 212.458 3.18403 212.598 3.21095C212.693 3.22856 212.771 3.2534 212.865 3.26997C212.904 3.27722 212.967 3.27619 213.015 3.27412C213.178 3.26687 213.338 3.25652 213.501 3.2503C213.547 3.24927 213.599 3.25963 213.641 3.26791C213.955 3.33004 213.955 3.33004 214.225 3.31658C214.333 3.3114 214.447 3.29586 214.548 3.30208C214.646 3.30829 214.731 3.33625 214.819 3.35385C215.001 3.39113 215.174 3.42737 215.187 3.50814C215.194 3.53921 215.301 3.56612 215.409 3.5682C215.513 3.57027 215.624 3.55889 215.732 3.55267C215.986 3.54025 215.986 3.54025 216.315 3.60341C216.407 3.62102 216.505 3.62308 216.622 3.61273C216.668 3.60859 216.723 3.61273 216.772 3.61791C216.932 3.63344 216.932 3.65311 216.827 3.69039C216.681 3.74527 216.694 3.75045 217.105 3.79705C217.261 3.81465 217.382 3.84779 217.512 3.87679C217.724 3.92338 217.721 3.92337 217.581 3.98447C217.548 3.99793 217.519 4.01243 217.486 4.02693C217.392 4.06731 217.316 4.1108 217.121 4.11494C216.906 4.11909 216.69 4.13566 216.475 4.14705C216.266 4.15844 216.211 4.18328 216.231 4.2537C216.253 4.33861 216.296 4.34793 216.671 4.34689C216.778 4.34689 216.873 4.35518 216.955 4.38313C216.915 4.41627 216.844 4.44216 216.739 4.44837C216.472 4.4639 216.201 4.47737 215.934 4.49083C215.719 4.50222 215.503 4.51361 215.288 4.525C215.155 4.53225 215.07 4.5861 215.106 4.64616C215.125 4.68033 215.141 4.7145 215.158 4.74867C215.194 4.81701 215.262 4.83462 215.481 4.83152C215.536 4.83048 215.588 4.82219 215.64 4.82426C215.852 4.83151 215.953 4.91745 216.208 4.89985C216.42 4.88535 216.642 4.88225 216.85 4.86361C217.043 4.84704 217.15 4.88433 217.284 4.91229C217.33 4.92161 217.378 4.94127 217.418 4.94024C217.688 4.92884 217.959 4.91746 218.223 4.89779C218.347 4.8895 218.422 4.89571 218.52 4.92057C218.755 4.98063 218.761 4.97752 219.11 4.95888C219.364 4.94438 219.368 4.94645 219.694 5.00962C219.785 5.02722 219.883 5.02722 220 5.01893C220.153 5.00858 220.313 4.99201 220.473 5.00755C220.522 5.01169 220.584 5.02412 220.6 5.03758C220.61 5.0469 220.564 5.06968 220.525 5.07693C220.238 5.13077 219.902 5.12146 219.589 5.1432C219.492 5.14942 219.394 5.12974 219.312 5.10178C219.227 5.07382 219.136 5.06244 219.025 5.06761C218.81 5.079 218.592 5.08625 218.38 5.10282C218.197 5.11731 218.07 5.09349 217.943 5.06139C217.9 5.05104 217.851 5.03136 217.809 5.0324C217.326 5.05311 216.84 5.07382 216.361 5.10282C216.169 5.11524 216.058 5.08211 215.927 5.05415C215.882 5.04483 215.836 5.02515 215.794 5.02619C215.631 5.03033 215.471 5.04172 215.308 5.05C214.714 5.08107 214.124 5.11213 213.531 5.14113C213.491 5.1432 213.443 5.12145 213.397 5.11213C213.309 5.09349 213.218 5.07589 213.126 5.05828C212.963 5.06657 212.803 5.07692 212.64 5.08314C212.523 5.08728 212.419 5.10178 212.402 5.14113C212.393 5.16702 212.5 5.19083 212.614 5.18876C212.725 5.18669 212.836 5.17426 212.927 5.18772C213.381 5.25399 213.381 5.25503 213.664 5.24157C213.912 5.22914 213.886 5.21878 214.105 5.27574C214.199 5.30059 214.284 5.31509 214.392 5.30888C214.659 5.29438 214.93 5.27988 215.2 5.26746C215.243 5.26539 215.298 5.27574 215.34 5.28403C215.66 5.34616 215.66 5.34823 215.924 5.33269C216.27 5.31406 216.283 5.30888 216.514 5.37204C216.674 5.41553 216.821 5.3855 216.974 5.38343C217.15 5.42382 217.343 5.46007 217.502 5.50563C217.692 5.55947 217.89 5.55014 218.106 5.53461C218.265 5.52322 218.422 5.51908 218.552 5.56154C218.676 5.60089 218.826 5.60503 218.996 5.59468C219.149 5.58536 219.306 5.56568 219.465 5.58846C219.508 5.59467 219.573 5.61021 219.57 5.61953C219.566 5.63403 219.524 5.65474 219.482 5.66095C219.182 5.70341 218.852 5.70237 218.536 5.72204C218.494 5.72515 218.438 5.71376 218.396 5.70547C218.305 5.68683 218.217 5.66509 218.128 5.64542C217.969 5.65163 217.806 5.6537 217.649 5.66612C217.528 5.67544 217.437 5.67442 217.349 5.64956C217.268 5.62678 217.18 5.59882 217.082 5.59157C216.984 5.58432 216.87 5.59986 216.762 5.60607C216.655 5.61228 216.531 5.60917 216.446 5.62574C216.361 5.6423 216.309 5.67855 216.253 5.70755C216.192 5.73965 216.107 5.75001 215.983 5.75311C215.869 5.75622 215.777 5.75207 215.693 5.72308C215.657 5.71065 215.608 5.70133 215.559 5.69305C215.513 5.6858 215.461 5.6744 215.419 5.67648C214.933 5.70029 214.45 5.72619 213.964 5.75104C213.723 5.76347 213.726 5.76346 213.224 5.70236C213.178 5.69719 213.123 5.68994 213.077 5.69201C212.807 5.70444 212.539 5.71894 212.269 5.73343C211.995 5.74793 211.998 5.74586 211.532 5.68062C211.447 5.6682 211.323 5.68477 211.222 5.68269C211.01 5.67752 210.906 5.59054 210.658 5.6071C210.446 5.6216 210.224 5.62471 210.012 5.64334C209.82 5.65991 209.709 5.62367 209.578 5.59572C209.533 5.5864 209.484 5.56568 209.445 5.56776C208.959 5.59054 208.476 5.61642 207.831 5.61953C207.671 5.61953 207.743 5.64128 207.847 5.64853C207.997 5.65992 208.046 5.63817 207.964 5.59675C207.906 5.56776 207.821 5.55325 207.752 5.5605C207.716 5.56464 207.671 5.58432 207.831 5.61953C208 5.65888 207.99 5.68062 208.02 5.69305C208.091 5.72308 208.193 5.7355 208.297 5.73136C208.46 5.72411 208.62 5.71376 208.783 5.70755C208.828 5.70547 208.884 5.71272 208.926 5.72101C209.285 5.78521 209.288 5.78936 209.67 5.7645C209.79 5.75725 209.878 5.75725 209.973 5.77693C210.103 5.80385 210.198 5.84941 210.397 5.83491C210.661 5.81524 210.932 5.80385 211.202 5.79246C211.245 5.79039 211.29 5.80903 211.339 5.81731C211.473 5.84217 211.571 5.88876 211.77 5.86909C211.923 5.85356 212.089 5.84941 212.252 5.8463C212.295 5.84526 212.36 5.86183 212.38 5.8753C212.419 5.89911 212.37 5.92708 212.259 5.94675C212.213 5.95504 212.151 5.95296 212.099 5.95607C211.884 5.96746 211.669 5.97988 211.453 5.9892C211.339 5.99438 211.232 6.00992 211.219 6.04823C211.209 6.07412 211.326 6.09689 211.437 6.09482C211.6 6.09172 211.763 6.08343 211.92 6.06997C212.197 6.04719 212.438 6.0534 212.663 6.11864C212.823 6.1642 212.813 6.14764 212.983 6.28225C213.025 6.31643 213.152 6.31953 213.263 6.31746C213.531 6.31228 213.655 6.32782 213.632 6.35992C213.602 6.39927 213.508 6.41168 213.387 6.41686C213.172 6.42515 212.957 6.43861 212.741 6.45C212.689 6.45311 212.631 6.45932 212.582 6.45725C212.533 6.45518 212.487 6.44275 212.445 6.43343C212.353 6.41376 212.275 6.38372 212.177 6.37648C212.08 6.36923 211.965 6.38476 211.858 6.39097C211.75 6.39615 211.636 6.41168 211.538 6.40444C211.44 6.39719 211.359 6.36613 211.271 6.34749C211.228 6.33817 211.176 6.32367 211.134 6.3247C210.919 6.33298 210.703 6.34645 210.488 6.35681C210.224 6.37027 210.224 6.37027 209.905 6.30607C209.813 6.28743 209.719 6.28847 209.598 6.29675C209.337 6.31332 209.334 6.31021 208.858 6.25015C208.812 6.24393 208.757 6.23669 208.711 6.23979C208.225 6.26361 207.743 6.2895 207.26 6.31435C206.846 6.33609 206.846 6.3361 206.618 6.43965C206.448 6.51628 206.445 6.51627 206.611 6.55148C206.745 6.58048 206.865 6.62293 207.012 6.63846C207.149 6.65296 207.319 6.60636 207.469 6.654C207.544 6.67781 207.641 6.7037 207.736 6.70784C207.886 6.71302 208.046 6.68299 208.189 6.72855C208.261 6.75133 208.369 6.77516 208.46 6.77619C208.62 6.77826 208.783 6.76168 208.943 6.75444C208.992 6.75237 209.047 6.75237 209.093 6.75755C209.141 6.76376 209.184 6.77619 209.226 6.78654C209.357 6.82175 209.497 6.83831 209.667 6.82071C209.944 6.79172 210.192 6.80621 210.407 6.87249C210.436 6.8818 210.508 6.88285 210.553 6.8787C210.671 6.86835 210.772 6.86731 210.86 6.88698C210.896 6.89527 210.948 6.90976 210.941 6.91908C210.932 6.93461 210.893 6.95532 210.85 6.9605C210.544 6.99571 210.214 6.99986 209.898 7.01849C209.856 7.02057 209.803 7.0071 209.761 6.99778C209.67 6.97914 209.591 6.94808 209.494 6.94083C209.396 6.93358 209.282 6.94704 209.174 6.95222C209.066 6.9574 208.952 6.97293 208.855 6.96672C208.757 6.95947 208.665 6.93358 208.587 6.9108C208.496 6.88491 208.408 6.88181 208.287 6.89217C208.131 6.90563 207.968 6.9077 207.808 6.91494C207.72 6.89527 207.632 6.87352 207.54 6.85488C207.498 6.84556 207.446 6.83417 207.4 6.83521C207.185 6.84349 206.97 6.85591 206.754 6.8673C206.539 6.87869 206.539 6.8787 206.174 6.8145C206.132 6.80725 206.076 6.79897 206.031 6.80104C205.76 6.81347 205.493 6.82899 205.222 6.84141C205.118 6.84659 205.023 6.8321 204.938 6.80414C204.857 6.77618 204.759 6.76065 204.658 6.76583C204.227 6.78757 203.797 6.80828 203.366 6.83417C203.194 6.84453 203.047 6.83521 202.929 6.79793C202.793 6.75548 202.639 6.76583 202.48 6.77412C202.118 6.79483 202.114 6.79378 201.883 6.74097C201.837 6.73062 201.791 6.71094 201.749 6.71198C201.374 6.72751 200.996 6.74201 200.624 6.76686C200.428 6.78032 200.324 6.74408 200.194 6.71716C200.148 6.70784 200.099 6.68816 200.06 6.69024C199.789 6.70163 199.519 6.71198 199.254 6.73269C198.99 6.7534 198.889 6.65711 198.69 6.65814C198.42 6.65918 198.152 6.68299 197.885 6.69749C197.67 6.70888 197.454 6.72027 197.239 6.73166C197.024 6.74305 196.809 6.75236 196.594 6.76583C196.479 6.77307 196.395 6.76375 196.3 6.73786C196.18 6.70369 196.036 6.67678 195.906 6.64572C195.707 6.60119 195.707 6.60118 195.465 6.61361C195.413 6.61672 195.358 6.61878 195.306 6.62189C194.911 6.64467 194.911 6.64261 194.409 6.57737C194.386 6.57426 194.327 6.58566 194.304 6.59394C194.236 6.62086 194.174 6.64985 194.112 6.67781C194.024 6.66124 193.916 6.65192 193.858 6.62811C193.691 6.5608 193.431 6.65296 193.261 6.58669C193.199 6.56183 193.091 6.54009 192.994 6.53387C192.892 6.52766 192.778 6.54216 192.674 6.54837C192.403 6.5639 192.403 6.56287 192.172 6.65503C192.054 6.70059 191.885 6.69231 191.732 6.70266C191.572 6.71405 191.419 6.72027 191.285 6.67781C191.164 6.6395 191.018 6.63018 190.845 6.64261C190.633 6.65814 190.414 6.66745 190.199 6.67677C190.153 6.67884 190.098 6.67367 190.052 6.66746C189.553 6.60636 189.553 6.60533 189.312 6.61879C189.204 6.62501 189.094 6.62707 188.989 6.63639C188.813 6.65296 188.679 6.63121 188.552 6.59807C188.51 6.58772 188.461 6.56805 188.419 6.56909C188.203 6.57427 187.991 6.58359 187.779 6.5929C187.616 6.60015 187.453 6.6043 187.297 6.61879C187.036 6.64261 186.909 6.57529 186.729 6.54423C186.462 6.55769 186.191 6.56701 185.924 6.58565C185.8 6.59393 185.719 6.59083 185.624 6.56598C185.503 6.53492 185.392 6.49971 185.197 6.51524C184.936 6.53595 184.662 6.5432 184.395 6.55563C184.215 6.52353 184.085 6.45828 183.827 6.4821C183.671 6.4966 183.504 6.4997 183.345 6.50799C183.129 6.51938 182.914 6.52974 182.699 6.54217C182.467 6.55459 182.471 6.55149 182.115 6.49039C181.91 6.45415 181.698 6.49453 181.489 6.50074C181.326 6.50592 181.245 6.55355 181.284 6.61465C181.323 6.67574 181.235 6.72337 181.085 6.73166C180.71 6.75133 180.332 6.77204 179.957 6.78964C179.911 6.79171 179.855 6.78446 179.813 6.77721C179.412 6.71198 179.412 6.71302 179.233 6.72234C178.965 6.73787 178.691 6.74615 178.427 6.76583C178.245 6.77929 178.111 6.75755 177.994 6.72234C177.902 6.69542 177.817 6.68921 177.7 6.69542C176.409 6.7648 175.117 6.829 173.829 6.90045C173.637 6.9108 173.526 6.88077 173.396 6.85282C173.35 6.8435 173.308 6.82382 173.262 6.82382C173.154 6.82382 173.047 6.83314 172.939 6.83935C172.457 6.86421 171.974 6.89423 171.488 6.91287C171.283 6.92115 171.227 6.96879 171.139 7.00814C171.071 7.03817 170.992 7.05059 170.872 7.05473C170.754 7.05888 170.67 7.0537 170.578 7.02677C170.461 6.99157 170.327 6.96982 170.145 6.98431C169.933 7.00088 169.717 7.00814 169.499 7.01953C169.388 7.02471 169.303 7.04334 169.267 7.08062C169.261 7.08683 169.329 7.10237 169.368 7.11169C169.499 7.14276 169.623 7.179 169.77 7.20074C169.92 7.22249 170.083 7.19763 170.239 7.19141C170.295 7.18934 170.347 7.18314 170.399 7.18417C170.448 7.18521 170.507 7.19039 170.542 7.19971C170.712 7.2463 170.891 7.2784 171.126 7.25045C171.328 7.26391 171.433 7.34985 171.69 7.32707C171.847 7.31361 172.01 7.3074 172.173 7.30222C172.215 7.30118 172.261 7.31982 172.307 7.32914C172.437 7.35503 172.541 7.39645 172.737 7.37885C172.946 7.36021 173.167 7.3571 173.379 7.34261C173.497 7.33432 173.582 7.34157 173.673 7.36849C173.79 7.40267 173.924 7.42854 174.107 7.41198C174.263 7.39748 174.429 7.39437 174.589 7.38505C174.798 7.37366 174.798 7.3747 175.17 7.4389C175.212 7.44615 175.267 7.45443 175.313 7.45236C175.584 7.43994 175.851 7.4244 176.122 7.41198C176.226 7.4068 176.327 7.42026 176.399 7.45029C176.428 7.46272 176.419 7.48344 176.428 7.50104C175.89 7.529 175.352 7.55281 174.817 7.58698C174.615 7.60044 174.524 7.55799 174.39 7.53417C174.345 7.52589 174.296 7.50829 174.253 7.51036C173.875 7.52796 173.5 7.54659 173.125 7.56938C173.008 7.57662 172.92 7.57248 172.832 7.54245C172.607 7.46272 172.333 7.50621 172.078 7.5176C171.883 7.52588 171.821 7.55799 171.844 7.62633C171.873 7.7071 171.99 7.73195 172.29 7.71746C172.398 7.71228 172.505 7.70503 172.613 7.70089C172.717 7.69674 172.812 7.7102 172.897 7.73816C172.978 7.76612 173.076 7.78062 173.177 7.77648C173.392 7.76716 173.611 7.75784 173.82 7.74231C173.992 7.72988 174.136 7.74023 174.257 7.77855C174.39 7.821 174.547 7.81168 174.703 7.80236C175.069 7.78165 175.072 7.78269 175.3 7.83447C175.346 7.84482 175.391 7.8645 175.434 7.86347C175.809 7.84793 176.187 7.83447 176.555 7.80962C176.748 7.79719 176.859 7.83032 176.986 7.85725C177.032 7.86657 177.077 7.88728 177.12 7.88521C177.39 7.87382 177.661 7.86242 177.925 7.84275C178.049 7.83343 178.124 7.83964 178.225 7.86449C178.466 7.92559 178.473 7.92351 178.815 7.90384C178.92 7.89763 179.034 7.88624 179.132 7.89452C179.229 7.90281 179.308 7.93284 179.399 7.95148C179.441 7.95977 179.494 7.97115 179.539 7.96908C179.754 7.96079 179.97 7.94837 180.185 7.93698C180.387 7.92559 180.387 7.92663 180.765 7.99083C180.919 8.01775 181.078 7.99497 181.232 7.98669C181.398 7.97737 181.548 7.97737 181.675 8.01776C181.802 8.05814 181.956 8.05606 182.119 8.04778C182.272 8.03949 182.428 8.01672 182.585 8.04468C182.944 8.10888 182.944 8.1099 183.165 8.09748C183.488 8.07987 183.808 8.06331 184.134 8.04778C184.176 8.04571 184.232 8.05814 184.274 8.06642C184.365 8.08506 184.444 8.11612 184.541 8.12337C184.639 8.13165 184.753 8.11923 184.858 8.11301C185.194 8.09334 185.216 8.08609 185.441 8.15444C185.631 8.21035 185.865 8.12958 186.041 8.19379C186.143 8.23003 186.279 8.25902 186.469 8.24142C186.625 8.22692 186.788 8.22277 186.951 8.21449C187.209 8.20103 187.209 8.20208 187.535 8.26421C187.577 8.27249 187.633 8.28284 187.675 8.28076C187.89 8.27248 188.109 8.26524 188.318 8.2466C188.562 8.22485 188.719 8.2642 188.901 8.30252C189.045 8.33255 189.214 8.30769 189.368 8.29734C189.534 8.28698 189.684 8.29008 189.808 8.33047C189.938 8.37189 190.091 8.36671 190.254 8.35843C190.408 8.35118 190.564 8.32736 190.721 8.35635C191.057 8.42056 191.057 8.42056 191.301 8.40813C191.516 8.39674 191.732 8.38432 191.947 8.37604C191.989 8.37396 192.041 8.38742 192.084 8.39674C192.175 8.41538 192.253 8.44645 192.351 8.4537C192.449 8.46095 192.563 8.44749 192.671 8.44231C192.778 8.43713 192.892 8.4216 192.99 8.42781C193.088 8.43402 193.179 8.45991 193.258 8.48269C193.349 8.50962 193.434 8.51272 193.558 8.50236C193.714 8.4889 193.877 8.4858 194.037 8.47855C194.125 8.49822 194.216 8.51789 194.301 8.53964C194.389 8.56242 194.484 8.56035 194.604 8.5531C195.006 8.52825 195.009 8.53136 195.345 8.59556C195.498 8.62455 195.658 8.60074 195.811 8.59349C195.974 8.5852 196.127 8.58107 196.254 8.62249C196.378 8.66183 196.532 8.667 196.695 8.65458C196.799 8.64629 196.91 8.64113 197.018 8.63802C197.066 8.63698 197.125 8.64112 197.161 8.64941C197.334 8.6929 197.503 8.73225 197.741 8.70429C197.95 8.71258 198.054 8.79749 198.306 8.78092C198.518 8.76642 198.739 8.76331 198.948 8.74467C199.14 8.7281 199.277 8.7571 199.375 8.79335C199.551 8.85755 199.799 8.77057 199.975 8.83373C200.076 8.86997 200.207 8.89897 200.402 8.88343C200.618 8.86687 200.686 8.8886 200.748 8.95384C200.784 8.99112 200.777 9.02115 200.712 9.05015C200.647 9.08018 200.575 9.075 200.471 9.04083C200.35 9.00252 200.207 8.99526 200.034 9.00354C199.864 9.01183 199.76 8.95799 199.62 8.93728C199.479 8.91554 199.313 8.95178 199.166 8.92382C198.821 8.85858 198.821 8.85858 198.586 8.87101C198.426 8.87929 198.26 8.88344 198.103 8.89793C197.918 8.91554 197.797 8.88343 197.67 8.85444C197.624 8.84408 197.578 8.8244 197.539 8.82544C197.164 8.84097 196.786 8.85547 196.414 8.88136C196.219 8.89482 196.114 8.85755 195.984 8.83166C195.938 8.82234 195.889 8.8037 195.85 8.80577C195.527 8.82027 195.208 8.83891 194.885 8.85651C194.823 8.88447 194.754 8.91139 194.696 8.94141C194.634 8.97248 194.549 8.98595 194.425 8.98491C194.22 8.98491 194.017 9.0284 193.812 8.97352C193.6 8.9176 193.584 8.92071 193.378 8.93417C193.118 8.95178 192.84 8.94764 192.596 8.98802C192.553 8.99527 192.508 9.01493 192.508 9.02943C192.504 9.03875 192.573 9.05222 192.615 9.0605C192.759 9.08535 192.925 9.04911 193.069 9.075C193.163 9.09157 193.241 9.11641 193.336 9.13402C193.375 9.14126 193.434 9.14023 193.486 9.1392C193.541 9.13816 193.594 9.13092 193.646 9.13196C193.695 9.13299 193.747 9.1392 193.786 9.14852C193.965 9.18786 194.154 9.22411 194.314 9.27071C194.471 9.31627 194.617 9.28521 194.774 9.28314C195.4 9.35562 195.4 9.35666 195.821 9.33387C195.925 9.3287 196.033 9.32249 196.14 9.32352C196.186 9.32352 196.228 9.34215 196.274 9.35251C196.404 9.38357 196.528 9.41153 196.711 9.39497C196.868 9.38047 197.034 9.37736 197.194 9.36804C197.409 9.35665 197.409 9.35665 197.774 9.42189C197.865 9.43846 197.963 9.43639 198.081 9.42811C198.182 9.42086 198.286 9.43639 198.358 9.46642C198.387 9.47885 198.377 9.49956 198.387 9.51716C198.064 9.53373 197.738 9.54512 197.425 9.56997C197.223 9.5855 197.132 9.54098 196.998 9.51716C196.952 9.50888 196.903 9.49127 196.861 9.49335C196.541 9.50888 196.222 9.52647 195.902 9.54718C195.863 9.54925 195.814 9.57307 195.811 9.58757C195.805 9.61449 195.886 9.64038 196.003 9.63934C196.16 9.63831 196.313 9.6207 196.453 9.66316C196.571 9.70043 196.717 9.71701 196.89 9.70045C196.995 9.69113 197.106 9.69112 197.21 9.68284C197.487 9.65799 197.738 9.66316 197.947 9.73358C198.107 9.75222 198.263 9.73462 198.416 9.7253C198.531 9.71805 198.641 9.71079 198.723 9.73047C198.896 9.77189 199.065 9.81331 199.303 9.78535C199.561 9.81435 199.757 9.87544 199.972 9.92514C200.073 9.94896 200.151 9.96243 200.269 9.9469C200.318 9.94068 200.376 9.94067 200.428 9.93757C200.536 9.93239 200.65 9.91686 200.748 9.92307C200.846 9.93032 200.927 9.96035 201.015 9.97899C201.058 9.98831 201.107 10.0038 201.149 10.0028C201.312 9.99763 201.472 9.98727 201.632 9.97899C201.791 9.97174 201.951 9.9645 202.111 9.95725C202.245 9.98417 202.382 10.0111 202.515 10.038C202.731 10.0266 202.946 10.0152 203.158 10.0049C203.396 9.99245 203.396 9.99349 203.738 10.0577C203.891 10.0867 204.055 10.068 204.201 10.0546C204.446 10.0328 204.609 10.0722 204.782 10.1136C204.818 10.1219 204.883 10.1271 204.925 10.1229C205.095 10.1084 205.241 10.1198 205.365 10.1581C205.453 10.1851 205.541 10.1975 205.649 10.1923C206.024 10.1726 206.399 10.1519 206.774 10.1343C206.82 10.1322 206.872 10.1416 206.914 10.1498C207.247 10.213 207.25 10.2161 207.495 10.1996C207.713 10.1851 207.915 10.1788 208.088 10.2358C208.124 10.2482 208.179 10.2658 208.219 10.2648C208.486 10.2544 208.757 10.243 209.021 10.2254C209.142 10.2172 209.226 10.2203 209.321 10.2441C209.441 10.2741 209.549 10.3104 209.748 10.2969C210.299 10.2586 210.302 10.2648 210.955 10.3362C211 10.3414 211.062 10.3331 211.114 10.329C211.225 10.3186 211.307 10.3331 211.404 10.357C211.623 10.4108 211.63 10.4077 211.838 10.3963C211.998 10.387 212.164 10.3849 212.321 10.3694C212.562 10.3466 212.722 10.387 212.901 10.4253C213.045 10.4553 213.211 10.4305 213.364 10.4212C213.531 10.4108 213.681 10.4139 213.805 10.4532C213.889 10.4802 213.981 10.4947 214.088 10.4895C214.463 10.4709 214.838 10.4501 215.213 10.4315C215.259 10.4294 215.314 10.4377 215.357 10.445C215.728 10.5092 215.728 10.5123 216.097 10.4885C216.214 10.4812 216.312 10.4791 216.4 10.5009C216.485 10.5216 216.576 10.5413 216.664 10.5609C216.824 10.5537 216.987 10.5516 217.144 10.5392C217.264 10.5299 217.349 10.534 217.444 10.5558C217.568 10.5837 217.672 10.6324 217.868 10.6086C217.969 10.5972 218.086 10.6003 218.187 10.5899C218.308 10.5765 218.389 10.5848 218.484 10.6117C218.601 10.6438 218.722 10.6769 218.911 10.6603C219.12 10.6417 219.341 10.6386 219.553 10.6241C219.671 10.6158 219.752 10.6241 219.847 10.651C219.964 10.6852 220.098 10.707 220.281 10.6935C220.652 10.6676 220.656 10.6728 221.018 10.738C221.109 10.7546 221.207 10.7525 221.324 10.7442C221.425 10.737 221.53 10.7525 221.601 10.7825C221.67 10.8157 221.663 10.8364 221.67 10.854ZM192.612 1.5148C192.504 1.51998 192.397 1.52619 192.24 1.4361C192.231 1.42057 192.237 1.40193 192.214 1.38847C192.162 1.36051 192.081 1.34084 191.983 1.33773C191.807 1.33359 191.595 1.36879 191.598 1.39571C191.601 1.4185 191.657 1.43817 191.764 1.45681C191.81 1.46405 191.846 1.47648 191.888 1.48477C192.012 1.50858 192.11 1.55519 192.289 1.53137C192.257 1.46717 192.273 1.49927 192.289 1.53137C192.273 1.57072 192.322 1.59868 192.439 1.61007C192.472 1.61318 192.521 1.6111 192.547 1.60489C192.648 1.58211 192.664 1.55105 192.589 1.46924C192.576 1.48271 192.586 1.50651 192.615 1.51273C192.645 1.51894 192.716 1.51377 192.752 1.50652C192.844 1.48685 192.889 1.46096 192.866 1.43921C192.853 1.42782 192.791 1.41332 192.752 1.41332C192.684 1.41332 192.622 1.4361 192.612 1.5148ZM218.98 13.5235C218.741 13.5432 218.468 13.5359 218.23 13.5763C218.187 13.5836 218.145 13.6022 218.142 13.6167C218.138 13.626 218.204 13.6395 218.243 13.6467C218.331 13.6633 218.428 13.6581 218.543 13.6529C218.715 13.6457 218.817 13.6933 218.95 13.7171C218.993 13.7244 219.048 13.7296 219.094 13.7275C219.358 13.7151 219.619 13.7016 219.883 13.6871C219.928 13.684 219.977 13.6768 220.017 13.6674C220.147 13.6374 220.134 13.6177 220.007 13.595C219.867 13.5701 219.756 13.5287 219.612 13.509C219.407 13.4811 219.198 13.5183 218.98 13.5235ZM200.461 14.2794C200.301 14.2877 200.145 14.296 199.985 14.3043C199.933 14.3074 199.877 14.3084 199.828 14.3126C199.727 14.3198 199.652 14.3416 199.603 14.3757C199.678 14.4026 199.77 14.4182 199.871 14.4151C200.031 14.4089 200.187 14.3954 200.347 14.3923C200.52 14.3882 200.621 14.4348 200.754 14.4586C200.797 14.4658 200.849 14.4669 200.898 14.4679C201.139 14.472 201.286 14.4182 201.24 14.3426C201.208 14.2836 201.084 14.2484 200.934 14.2556C200.777 14.2629 200.618 14.2711 200.461 14.2794ZM220.095 11.993C220.134 11.9754 220.176 11.963 220.196 11.9475C220.255 11.8947 220.232 11.8553 220.124 11.8139C219.994 11.7632 219.834 11.7973 219.687 11.8025C219.651 11.8035 219.612 11.8253 219.593 11.8387C219.58 11.8481 219.58 11.8677 219.599 11.8729C219.759 11.9143 219.928 11.9527 220.095 11.993ZM191.807 8.93417C191.65 8.94246 191.49 8.94867 191.334 8.96006C191.295 8.96317 191.259 8.98284 191.236 8.9963C191.194 9.02115 191.239 9.05532 191.373 9.05843C191.526 9.06257 191.686 9.04497 191.846 9.03669C192.048 9.02633 192.169 8.98801 192.094 8.95488C192.022 8.92278 191.924 8.91657 191.807 8.93417ZM20.1571 6.72131C20.2614 6.71613 20.369 6.71198 20.4734 6.70473C20.5712 6.69749 20.6462 6.67471 20.6951 6.64053C20.6136 6.61361 20.5223 6.59911 20.4212 6.60222C20.2614 6.60843 20.1049 6.61672 19.9484 6.62707C19.8506 6.63328 19.756 6.65606 19.7332 6.69127C19.7104 6.71819 19.9288 6.73373 20.1571 6.72131ZM178.016 6.56183C178.059 6.57115 178.101 6.5898 178.144 6.5898C178.248 6.5898 178.356 6.58358 178.453 6.57322C178.496 6.56908 178.528 6.55044 178.548 6.53595C178.561 6.52663 178.558 6.51006 178.538 6.50178C178.444 6.45208 178.065 6.46968 178.003 6.52663C177.997 6.53699 178.013 6.55044 178.016 6.56183ZM167.728 0.891426C167.738 0.907994 167.741 0.92456 167.754 0.941128C167.78 0.972193 167.852 0.994979 167.957 1.01051C168.038 0.984624 168.08 0.955634 168.077 0.924569C168.074 0.908001 168.064 0.891422 168.051 0.874854C168.025 0.843789 167.953 0.821016 167.849 0.805484C167.767 0.830336 167.728 0.859325 167.728 0.891426ZM227.631 14.4596C227.601 14.4731 227.572 14.4865 227.539 14.499C227.627 14.529 227.709 14.5383 227.771 14.5217C227.81 14.5114 227.833 14.4958 227.862 14.4824C227.774 14.4524 227.696 14.4441 227.631 14.4596ZM225.602 14.6004C225.645 14.6098 225.684 14.6222 225.73 14.6284C225.805 14.6388 225.873 14.6211 225.925 14.5839C225.883 14.5745 225.844 14.5621 225.798 14.5559C225.723 14.5455 225.655 14.5632 225.602 14.6004ZM226.887 14.4109C226.864 14.4358 226.91 14.4565 227.031 14.4741C227.06 14.4606 227.099 14.4482 227.119 14.4337C227.151 14.4099 227.096 14.3882 226.978 14.3716C226.946 14.384 226.917 14.3975 226.887 14.4109ZM220.003 13.2947C219.981 13.3195 220.026 13.3402 220.147 13.3578C220.176 13.3444 220.215 13.3319 220.235 13.3174C220.268 13.2936 220.212 13.2719 220.095 13.2553C220.062 13.2677 220.033 13.2812 220.003 13.2947ZM210.625 5.96746C210.596 5.98092 210.566 5.99438 210.534 6.00681C210.622 6.03684 210.703 6.04615 210.765 6.02958C210.805 6.01923 210.827 6.0037 210.857 5.99024C210.769 5.96021 210.69 5.95192 210.625 5.96746ZM201.641 2.08018C201.72 2.08743 201.785 2.07294 201.84 2.03462C201.798 2.0253 201.759 2.01288 201.713 2.00666C201.638 1.99631 201.57 2.01392 201.518 2.0512C201.56 2.06155 201.602 2.07086 201.641 2.08018ZM196.871 1.83684C196.841 1.8503 196.812 1.86376 196.779 1.87619C196.868 1.90622 196.949 1.91554 197.011 1.89897C197.05 1.88861 197.073 1.87308 197.102 1.85962C197.014 1.82959 196.936 1.82234 196.871 1.83684ZM164.52 0.890389C164.49 0.903851 164.461 0.917313 164.428 0.929739C164.516 0.959769 164.598 0.969085 164.66 0.952517C164.699 0.942162 164.722 0.926629 164.751 0.913167C164.663 0.883138 164.585 0.875892 164.52 0.890389ZM3.43525 9.31523C3.39285 9.30591 3.3505 9.2966 3.31137 9.28625C3.2168 9.3142 3.18747 9.34009 3.23964 9.35976C3.27225 9.37219 3.32112 9.37944 3.36352 9.38876C3.46134 9.3608 3.48416 9.33594 3.43525 9.31523Z" fill="#FFE492"/>
<path d="M22.3517 5.65915C21.9767 5.67882 21.605 5.70366 21.23 5.71609C21.0311 5.7223 20.9594 5.76683 20.8778 5.80825C20.8126 5.84139 20.7376 5.85174 20.617 5.85795C19.5996 5.90869 18.5854 5.96254 17.5713 6.01535C17.4441 6.00189 17.3821 5.98015 17.4115 5.95426C17.4278 5.93873 17.4669 5.91698 17.5061 5.91491C18.2006 5.8766 18.8919 5.83725 19.5897 5.80722C19.7886 5.79893 19.8441 5.75337 19.9452 5.71609C19.9778 5.70366 20.0039 5.68503 20.0463 5.67778C20.0887 5.66949 20.1506 5.67053 20.2061 5.66846C21.3278 5.60944 22.4496 5.55146 23.5713 5.49243C23.6985 5.50589 23.7605 5.52764 23.7311 5.55352C23.7148 5.56906 23.6757 5.5908 23.6365 5.59287C23.2061 5.61462 22.7789 5.63636 22.3517 5.65915Z" fill="#FFE492"/>
<path d="M227.673 11.173C227.503 11.1854 227.288 11.203 227.112 11.1429C227.027 11.114 226.936 11.1046 226.825 11.1109C226.665 11.1212 226.502 11.1295 226.339 11.1357C226.297 11.1367 226.241 11.1253 226.199 11.116C226.108 11.0974 226.029 11.0663 225.931 11.058C225.834 11.0498 225.716 11.0725 225.615 11.0674C225.481 11.0601 225.426 11.0322 225.462 11.0063C225.481 10.9918 225.521 10.9711 225.563 10.968C226.166 10.9296 226.169 10.9296 226.339 10.9669C226.469 10.9959 226.59 11.028 226.776 11.0104C226.933 10.9959 227.099 10.9928 227.259 10.9835C227.48 10.971 227.48 10.9721 227.839 11.0373C227.93 11.0539 228.028 11.0529 228.146 11.0435C228.247 11.0363 228.344 11.0529 228.426 11.0808C228.374 11.116 228.299 11.1388 228.198 11.145C228.035 11.1554 227.875 11.1626 227.673 11.173Z" fill="#FFE492"/>
<path d="M221.672 10.8539C222.083 10.8322 222.497 10.8136 222.908 10.7887C223.077 10.7784 223.211 10.7897 223.328 10.8249C223.456 10.8633 223.599 10.8602 223.756 10.8529C223.853 10.8488 223.948 10.8653 224.013 10.8943C224.039 10.9057 224.033 10.9264 224.043 10.943C223.684 10.9616 223.322 10.9813 222.96 10.9979C222.918 10.9999 222.865 10.9896 222.826 10.9813C222.738 10.9637 222.663 10.9326 222.569 10.9264C222.366 10.9119 222.164 10.9399 221.959 10.9451C221.861 10.9471 221.766 10.9316 221.701 10.9036C221.675 10.8902 221.682 10.8705 221.672 10.8539Z" fill="#FFE492"/>
<path d="M73.1855 1.95121C73.6127 1.92843 74.0399 1.90669 74.467 1.88391C74.5942 1.89841 74.6529 1.91911 74.6268 1.945C74.6105 1.96053 74.5714 1.98228 74.5322 1.98435C73.6779 2.03095 72.8236 2.07547 71.9725 2.12C71.8453 2.1055 71.7866 2.08479 71.8127 2.0589C71.829 2.04337 71.8682 2.02163 71.9073 2.01956C72.3312 1.99574 72.7584 1.97399 73.1855 1.95121Z" fill="#FFE492"/>
<path d="M7.36201 7.70495C7.16962 7.70702 6.96749 7.74533 6.75227 7.71634C6.70988 7.71116 6.65117 7.69459 6.65443 7.68527C6.66095 7.66974 6.70009 7.65006 6.74248 7.64385C6.92835 7.61796 7.15989 7.61485 7.25446 7.54237C7.30011 7.50509 7.38489 7.49267 7.49902 7.48542C7.61968 7.47714 7.70443 7.48024 7.799 7.50198C7.92291 7.52994 8.02728 7.58172 8.22293 7.55479C8.23271 7.57136 8.25548 7.59 8.2457 7.60553C8.23592 7.62106 8.1936 7.63556 8.15447 7.64695C8.1186 7.65731 8.06963 7.66663 8.02398 7.66973C7.80876 7.68216 7.59354 7.69252 7.36201 7.70495Z" fill="#FFE492"/>
<path d="M176.948 7.49702C177.108 7.48874 177.274 7.48459 177.431 7.4701C177.555 7.4587 177.633 7.46595 177.731 7.4908C177.897 7.53429 177.907 7.53016 178.315 7.53637C178.36 7.5374 178.416 7.55293 178.442 7.56639C178.458 7.57364 178.435 7.59332 178.416 7.60368C178.386 7.61714 178.344 7.63474 178.305 7.63474C178.047 7.63784 177.786 7.69894 177.535 7.62853C177.408 7.59332 177.268 7.57675 177.095 7.59228C176.991 7.6016 176.88 7.60574 176.772 7.60989C176.668 7.61403 176.56 7.60264 176.495 7.57157C176.401 7.52601 176.456 7.50841 176.626 7.51152C176.733 7.51359 176.841 7.5022 176.948 7.49702Z" fill="#FFE492"/>
<path d="M132.529 0.540542C132.741 0.529151 132.953 0.511557 133.165 0.510521C133.288 0.509486 133.35 0.543651 133.321 0.568503C133.305 0.584035 133.266 0.605781 133.226 0.607852C132.803 0.632704 132.379 0.653418 131.955 0.676199C131.831 0.661702 131.769 0.63996 131.798 0.615108C131.815 0.599575 131.854 0.578865 131.893 0.575758C132.105 0.561261 132.317 0.551933 132.529 0.540542Z" fill="#FFE492"/>
<path d="M182.349 7.63686C182.453 7.63168 182.561 7.61822 182.662 7.62236C182.77 7.62754 182.838 7.65757 182.871 7.6876C182.907 7.72177 182.903 7.75388 182.871 7.78287C182.819 7.83257 182.766 7.8305 182.646 7.79737C182.46 7.74559 182.447 7.7518 182.078 7.75387C182.036 7.75387 181.984 7.73834 181.951 7.72488C181.902 7.70417 181.928 7.67207 182.043 7.65343C182.127 7.63997 182.245 7.64204 182.349 7.63686Z" fill="#FFE492"/>
<path d="M224.341 10.9239C224.494 10.9156 224.648 10.9021 224.801 10.9021C224.909 10.9011 224.993 10.9249 225.003 10.9508C225.006 10.9632 224.958 10.9839 224.918 10.9901C224.733 11.0181 224.524 11.0202 224.322 11.0295C224.227 11.0336 224.123 11.0171 224.064 10.9881C223.976 10.9446 224.028 10.9249 224.188 10.9311C224.237 10.9332 224.289 10.927 224.341 10.9239Z" fill="#FFE492"/>
<path d="M200.223 9.65356C199.995 9.66599 199.779 9.65046 199.796 9.62354C199.819 9.58833 199.913 9.56554 200.011 9.55933C200.168 9.54897 200.324 9.54069 200.484 9.53448C200.585 9.53034 200.676 9.54587 200.758 9.57279C200.709 9.60593 200.634 9.62974 200.536 9.63699C200.435 9.64424 200.327 9.64839 200.223 9.65356Z" fill="#FFE492"/>
<path d="M198.722 9.52177C198.875 9.51349 199.029 9.50003 199.182 9.50003C199.289 9.499 199.374 9.52281 199.384 9.5487C199.387 9.56112 199.338 9.58183 199.299 9.58805C199.113 9.61601 198.905 9.61808 198.702 9.6274C198.608 9.63154 198.504 9.61497 198.445 9.58597C198.357 9.54248 198.409 9.52282 198.569 9.52903C198.618 9.5311 198.67 9.52488 198.722 9.52177Z" fill="#FFE492"/>
<path d="M180.496 7.62841C180.649 7.62013 180.802 7.60666 180.955 7.60562C181.063 7.60459 181.148 7.62841 181.157 7.6543C181.161 7.66673 181.112 7.6864 181.073 7.69365C180.887 7.72161 180.678 7.72368 180.476 7.733C180.381 7.73714 180.277 7.72057 180.218 7.69158C180.13 7.64809 180.182 7.62841 180.342 7.63462C180.391 7.63669 180.443 7.63049 180.496 7.62841Z" fill="#FFE492"/>
<path d="M179.634 7.56693C179.797 7.55864 179.849 7.55347 179.901 7.55347C179.999 7.55347 180.1 7.5659 180.159 7.59593C180.247 7.63942 180.195 7.65185 180.035 7.65392C179.829 7.65599 179.627 7.67774 179.422 7.68188C179.314 7.68395 179.229 7.65909 179.223 7.6332C179.22 7.62078 179.268 7.59903 179.308 7.59489C179.445 7.57936 179.595 7.57004 179.634 7.56693Z" fill="#FFE492"/>
<path d="M197.4 1.47541C197.296 1.48059 197.185 1.49508 197.087 1.48991C196.957 1.48266 196.905 1.4547 196.937 1.42882C196.957 1.41432 196.993 1.39361 197.032 1.3905C197.24 1.37601 197.452 1.36668 197.661 1.35632C197.785 1.37186 197.84 1.3936 197.808 1.41949C197.788 1.43398 197.752 1.45366 197.713 1.4578C197.612 1.46816 197.505 1.47023 197.4 1.47541Z" fill="#FFE492"/>
<path d="M70.8536 2.07257C70.9547 2.07153 71.0459 2.08499 71.1242 2.11088C71.0753 2.14401 71.0035 2.16576 70.9057 2.17508C70.8568 2.17922 70.8014 2.18232 70.7492 2.18336C70.6481 2.18543 70.5568 2.17093 70.4785 2.14505C70.5274 2.11191 70.6024 2.09016 70.697 2.08084C70.7459 2.0767 70.8014 2.07567 70.8536 2.07257Z" fill="#FFE492"/>
<path d="M183.279 7.76191C183.275 7.75052 183.259 7.73706 183.269 7.72671C183.331 7.66976 183.706 7.65215 183.804 7.70186C183.82 7.71118 183.826 7.72671 183.813 7.73602C183.794 7.75052 183.758 7.76916 183.719 7.7733C183.618 7.78366 183.513 7.78884 183.409 7.78987C183.363 7.78987 183.321 7.77227 183.279 7.76191Z" fill="#FFE492"/>
<path d="M8.51624 7.53931C8.13146 7.56105 8.12494 7.55897 8.19342 7.5072C8.25537 7.4606 8.36952 7.43265 8.53582 7.43265C8.58474 7.43265 8.63689 7.43058 8.67928 7.43472C8.72494 7.4399 8.79019 7.45024 8.79997 7.46267C8.81954 7.48648 8.76405 7.51237 8.66623 7.52998C8.62384 7.53826 8.56841 7.5362 8.51624 7.53931Z" fill="#FFE492"/>
<path d="M75.6587 1.92719C75.5446 1.94479 75.4468 1.93858 75.3751 1.90544C75.3033 1.87231 75.4175 1.83295 75.6164 1.82364C75.6685 1.82156 75.724 1.81329 75.7729 1.81743C75.8218 1.82054 75.8708 1.83295 75.9001 1.84538C75.9523 1.86609 75.9197 1.89405 75.8153 1.91787C75.7729 1.92719 75.7109 1.92511 75.6587 1.92719Z" fill="#FFE492"/>
<path d="M13.6953 19.3275C13.6953 19.3151 13.7403 19.2954 13.7757 19.2913C13.8433 19.284 13.9269 19.2985 13.9847 19.3275C14.0652 19.3689 14.017 19.3907 13.869 19.3793C13.7661 19.371 13.6953 19.3503 13.6953 19.3275Z" fill="#FFE492"/>
<path d="M184.612 6.79819C184.654 6.80751 184.696 6.81683 184.735 6.82719C184.68 6.8655 184.612 6.88206 184.541 6.87171C184.496 6.86549 184.458 6.85307 184.416 6.84375C184.471 6.80543 184.535 6.79094 184.612 6.79819Z" fill="#FFE492"/>
<path d="M183.476 6.75144C183.54 6.73591 183.617 6.7442 183.707 6.77423C183.678 6.78769 183.652 6.80323 183.617 6.81358C183.556 6.83015 183.476 6.82186 183.389 6.79079C183.414 6.77837 183.443 6.7649 183.476 6.75144Z" fill="#FFE492"/>
<path d="M182.61 6.79672C182.652 6.80604 182.694 6.81536 182.732 6.82572C182.678 6.86403 182.613 6.88059 182.539 6.87024C182.494 6.86403 182.456 6.8516 182.414 6.84228C182.469 6.80397 182.533 6.78844 182.61 6.79672Z" fill="#FFE492"/>
<path d="M181.985 6.74189C182.033 6.7626 182.007 6.78745 181.914 6.8154C181.872 6.80608 181.824 6.79885 181.792 6.78642C181.74 6.76675 181.766 6.74085 181.862 6.71289C181.901 6.72325 181.943 6.73257 181.985 6.74189Z" fill="#FFE492"/>
</svg>
